<svg width="59" height="71" viewBox="0 0 59 71" fill="none" xmlns="http://www.w3.org/2000/svg">
<path d="M57.9579 12.556L29.8329 0.624196C29.7275 0.579692 29.6143 0.556763 29.5 0.556763C29.3856 0.556763 29.2724 0.579692 29.1671 0.624196L1.04208 12.556C0.888009 12.6214 0.756595 12.7307 0.664233 12.8703C0.571871 13.0098 0.522648 13.1735 0.522705 13.3409V25.9127C0.535373 35.2858 3.23975 44.458 8.31424 52.3385C13.3887 60.2191 20.6198 66.4764 29.1475 70.3664C29.2582 70.4169 29.3784 70.443 29.5 70.443C29.6216 70.443 29.7418 70.4169 29.8525 70.3664C38.3802 66.4764 45.6112 60.2191 50.6857 52.3385C55.7602 44.458 58.4646 35.2858 58.4773 25.9127V13.3409C58.4773 13.1735 58.4281 13.0098 58.3357 12.8703C58.2434 12.7307 58.1119 12.6214 57.9579 12.556Z" fill="white"/>
<path d="M49.8011 53.6534C44.7942 60.9352 37.8961 66.7136 29.8494 70.3665C29.7399 70.417 29.6206 70.4432 29.5 70.4432C29.3793 70.4432 29.2601 70.417 29.1505 70.3665C20.6216 66.4776 13.3892 60.2205 8.31407 52.3396C3.2389 44.4586 0.534525 35.2856 0.522705 25.9119V13.3409C0.523249 13.1737 0.572782 13.0103 0.665179 12.871C0.757577 12.7316 0.888788 12.6224 1.04259 12.5568L12.4971 7.69885C12.8895 18.3683 16.7406 28.6208 23.4695 36.9101C30.1984 45.1994 39.4403 51.076 49.8011 53.6534Z" fill="#BEC0C4"/>
<path d="M54.5489 14.8131L29.833 4.32702C29.7276 4.28255 29.6144 4.25964 29.5001 4.25964C29.3857 4.25964 29.2725 4.28255 29.1672 4.32702L4.45126 14.8131C4.29723 14.8786 4.16586 14.9879 4.07351 15.1274C3.98116 15.267 3.93191 15.4306 3.93188 15.598V25.9127C3.97007 34.3551 6.34326 42.6223 10.7888 49.7995C15.2344 56.9767 21.579 62.784 29.1206 66.5787C29.2385 66.6373 29.3684 66.6678 29.5001 66.6678C29.6318 66.6678 29.7616 66.6373 29.8796 66.5787C37.4211 62.784 43.7657 56.9767 48.2113 49.7995C52.6569 42.6223 55.0301 34.3551 55.0682 25.9127V15.598C55.0682 15.4306 55.019 15.267 54.9266 15.1274C54.8343 14.9879 54.7029 14.8786 54.5489 14.8131Z" fill="#EDEDED"/>
<path d="M46.2984 52.6477C42.0222 58.5406 36.3926 63.3197 29.8836 66.5823C29.7635 66.6385 29.6326 66.6676 29.5001 66.6676C29.3675 66.6676 29.2366 66.6385 29.1166 66.5823C21.5761 62.7854 15.2328 56.9768 10.7881 49.7991C6.34342 42.6214 3.97053 34.3542 3.93189 25.9119V15.5994C3.93128 15.4319 3.98035 15.268 4.07289 15.1285C4.16543 14.9889 4.29728 14.8799 4.45178 14.8153L12.7529 11.2954C13.7933 20.6782 17.5083 29.5643 23.4556 36.8957C29.4029 44.227 37.3318 49.6947 46.2984 52.6477Z" fill="#DDDDDD"/>
<path d="M42.0344 27.227L39.4775 24.6702C39.3984 24.591 39.3045 24.5282 39.2011 24.4853C39.0977 24.4425 38.9869 24.4204 38.875 24.4204C38.7631 24.4204 38.6522 24.4425 38.5489 24.4853C38.4455 24.5282 38.3515 24.591 38.2724 24.6702L26.9432 35.9993L22.4321 31.4883C22.353 31.4092 22.2591 31.3464 22.1557 31.3035C22.0523 31.2606 21.9414 31.2386 21.8295 31.2386C21.7176 31.2386 21.6068 31.2606 21.5034 31.3035C21.4 31.3464 21.3061 31.4092 21.227 31.4883L18.6702 34.0452C18.591 34.1243 18.5282 34.2182 18.4853 34.3216C18.4425 34.425 18.4204 34.5358 18.4204 34.6477C18.4204 34.7596 18.4425 34.8705 18.4853 34.9738C18.5282 35.0772 18.591 35.1712 18.6702 35.2503L26.3406 42.9207C26.4197 42.9999 26.5137 43.0627 26.617 43.1055C26.7204 43.1484 26.8313 43.1704 26.9432 43.1704C27.0551 43.1704 27.1659 43.1484 27.2693 43.1055C27.3727 43.0627 27.4666 42.9999 27.5457 42.9207L42.0344 28.4321C42.1135 28.353 42.1763 28.2591 42.2192 28.1557C42.2621 28.0523 42.2841 27.9414 42.2841 27.8295C42.2841 27.7176 42.2621 27.6068 42.2192 27.5034C42.1763 27.4 42.1135 27.3061 42.0344 27.227Z" fill="#03A678"/>
<path d="M28.3664 42.105L27.5482 42.9232C27.3866 43.0816 27.1693 43.1704 26.9431 43.1704C26.7168 43.1704 26.4995 43.0816 26.3379 42.9232L18.6675 35.2528C18.5078 35.0918 18.4182 34.8743 18.4182 34.6476C18.4182 34.4209 18.5078 34.2034 18.6675 34.0425L20.2442 32.4658C22.525 36.0154 25.255 39.2553 28.3664 42.105Z" fill="#08946D"/>
</svg>
