<svg width="75" height="75" viewBox="0 0 75 75" fill="none" xmlns="http://www.w3.org/2000/svg">
<path d="M59.7656 0L70.3125 11.7188L45.7031 43.3594L21.0938 11.7188L31.6406 0H59.7656Z" fill="#DDDDDD"/>
<path d="M45.7031 43.3594L21.0938 11.7188H36.3281L45.7031 43.3594Z" fill="#EDEDED"/>
<path d="M70.3125 11.7188L45.7031 43.3594L55.0781 11.7188H70.3125Z" fill="#EDEDED"/>
<path d="M70.3125 11.7188H55.0781L48.0469 0H59.7656L70.3125 11.7188Z" fill="#DDDDDD"/>
<path d="M55.0781 11.7188H36.3281L43.3594 0H48.0469L55.0781 11.7188Z" fill="#EDEDED"/>
<path d="M43.3594 0L36.3281 11.7188H21.0938L31.6406 0H43.3594Z" fill="#DDDDDD"/>
<path d="M71.4973 39.6094C70.4412 39.0538 69.2528 38.7987 68.0617 38.8721C66.8706 38.9454 65.7225 39.3444 64.7426 40.0254L44.2348 54.2203C43.9209 53.194 43.3605 52.2601 42.6023 51.5004L31.0125 39.9024C30.2526 39.1384 29.3488 38.5327 28.3533 38.1204C27.3578 37.708 26.2904 37.4972 25.2129 37.5H9.375C9.0642 37.5 8.76613 37.6235 8.54636 37.8433C8.32659 38.063 8.20312 38.3611 8.20312 38.6719V62.1094C8.20312 62.4202 8.32659 62.7183 8.54636 62.938C8.76613 63.1578 9.0642 63.2813 9.375 63.2813H14.666C15.4356 63.2792 16.1981 63.4297 16.9091 63.7242C17.6202 64.0187 18.2658 64.4513 18.8086 64.9969L24.2578 70.4485C26.9255 73.1024 30.4633 74.7016 34.218 74.9508C37.9728 75.2001 41.6909 74.0824 44.6859 71.8043L72.4336 50.5875C73.3063 49.9202 73.9967 49.0437 74.441 48.0389C74.8854 47.0342 75.0693 45.9337 74.9759 44.8391C74.8824 43.7445 74.5146 42.6911 73.9064 41.7762C73.2982 40.8613 72.4692 40.1145 71.4961 39.6047L71.4973 39.6094Z" fill="#FFE3E3"/>
<path d="M47.1919 56.7037C47.1232 58.4325 46.5523 60.1039 45.5491 61.5136C44.546 62.9233 43.1539 64.0103 41.543 64.6417C39.9321 65.2732 38.1722 65.4217 36.4782 65.0692C34.7843 64.7167 33.2297 63.8784 32.0044 62.6568L21.2818 51.9341C21.0898 51.7099 20.9895 51.4216 21.0009 51.1266C21.0123 50.8317 21.1345 50.5519 21.3432 50.3432C21.5519 50.1345 21.8317 50.0123 22.1266 50.0009C22.4216 49.9895 22.7099 50.0898 22.9341 50.2818L33.6568 61.0044C34.5601 61.9052 35.7063 62.5231 36.9553 62.7827C38.2042 63.0422 39.5018 62.9321 40.6892 62.4659C41.8765 61.9996 42.9023 61.1974 43.6409 60.1574C44.3796 59.1174 44.7991 57.8846 44.8482 56.6099C44.8726 55.8768 44.7776 55.1446 44.5669 54.4419L46.5591 53.0591C47.0212 54.2167 47.2368 55.458 47.1919 56.7037Z" fill="#E5BEBE"/>
<path d="M9.375 33.9844H1.17188C0.524666 33.9844 0 34.509 0 35.1562V65.6238C0 66.271 0.524666 66.7957 1.17188 66.7957H9.375C10.0222 66.7957 10.5469 66.271 10.5469 65.6238V35.1562C10.5469 34.509 10.0222 33.9844 9.375 33.9844Z" fill="#2A3143"/>
</svg>
