<svg width="260" height="260" viewBox="0 0 260 260" fill="none" xmlns="http://www.w3.org/2000/svg">
<path d="M40.0577 227.446L10.8982 162.337C-10.1091 115.459 0.237791 53.389 33.4733 23.4391C45.0744 13.4558 58.2432 7.81302 72.0391 7.81302C96.809 7.81302 119.698 24.3072 134.121 52.0868L137.57 58.5977L207.176 0L249.191 96.3606C259.538 120.234 262.673 149.316 257.656 176.661C252.953 203.573 241.039 225.71 224.107 239.165C213.133 247.846 200.278 252.621 187.423 252.621C162.967 252.621 140.078 235.693 126.282 207.913L123.46 201.402L54.7942 260L40.0577 227.446ZM183.974 116.761C187.736 116.761 191.185 119.366 193.067 124.14C196.202 131.519 194.634 140.2 189.618 144.541L141.646 185.342L145.408 192.721C155.128 211.386 170.805 222.671 187.423 222.671C197.77 222.671 207.803 218.331 216.269 210.518C239.157 189.249 245.428 146.277 231.005 112.421L218.15 82.9048L199.965 41.2354L101.826 123.706L87.7162 135.426L82.6995 139.332C80.8183 141.068 78.6235 141.937 76.7422 141.937C72.9797 141.937 69.5307 139.332 67.6495 134.558C64.8276 127.613 66.3953 118.497 71.412 114.157L118.757 74.6578L114.681 66.8447C105.275 48.1803 89.5975 37.3289 72.9797 37.3289C62.3193 37.3289 52.2859 41.6694 43.8202 49.9165C21.2452 71.1853 14.9743 115.025 29.7108 148.013L42.5661 177.095L61.3786 218.765L144.154 148.447L178.33 118.932C179.898 117.629 181.779 116.761 183.974 116.761Z" fill="#03A678"/>
</svg>
