<svg width="73" height="65" viewBox="0 0 73 65" fill="none" xmlns="http://www.w3.org/2000/svg">
<path d="M72.0711 35.302L63.5539 5.10625C63.302 4.22252 62.7696 3.44466 62.037 2.88999C61.3043 2.33532 60.4112 2.03392 59.4922 2.03125H59C58.3689 2.03077 57.7458 2.17189 57.1764 2.44421C56.6071 2.71654 56.1061 3.11313 55.7104 3.60477C55.3147 4.09641 55.0343 4.67057 54.8899 5.28494C54.7456 5.89932 54.7409 6.53826 54.8762 7.15469L59.8414 29.8492C59.0742 29.7652 58.298 29.8553 57.5704 30.1128C56.8428 30.3702 56.1827 30.7885 55.6391 31.3363L47.3868 39.5852C46.5332 40.4338 45.8565 41.4433 45.3958 42.5553C44.9352 43.6673 44.6997 44.8597 44.7032 46.0633V55.9375C44.7032 56.2483 44.8266 56.5464 45.0464 56.7661C45.2662 56.9859 45.5642 57.1094 45.875 57.1094H64.625C64.9358 57.1094 65.2339 56.9859 65.4537 56.7661C65.6734 56.5464 65.7969 56.2483 65.7969 55.9375V49.757L70.277 44.1566C71.2573 42.929 71.9313 41.4857 72.2433 39.9459C72.5553 38.4062 72.4963 36.8144 72.0711 35.302Z" fill="#FFE3E3"/>
<path d="M50.5625 6.71875C49.3193 6.71875 48.127 6.22489 47.2479 5.34581C46.3689 4.46674 45.875 3.27445 45.875 2.03125C45.875 1.72045 45.7515 1.42238 45.5318 1.20261C45.312 0.98284 45.0139 0.859375 44.7031 0.859375H28.2969C27.9861 0.859375 27.688 0.98284 27.4682 1.20261C27.2485 1.42238 27.125 1.72045 27.125 2.03125C27.125 3.27445 26.6311 4.46674 25.7521 5.34581C24.873 6.22489 23.6807 6.71875 22.4375 6.71875C22.1267 6.71875 21.8286 6.84222 21.6089 7.06199C21.3891 7.28175 21.2656 7.57982 21.2656 7.89063V24.9461C21.2684 26.3792 21.6454 27.7867 22.3592 29.0294C23.0731 30.2721 24.099 31.3068 25.3355 32.0313L35.9141 38.2C36.0933 38.3046 36.2971 38.3597 36.5047 38.3597C36.7122 38.3597 36.9161 38.3046 37.0953 38.2L47.6645 32.0313C48.901 31.3068 49.9269 30.2721 50.6408 29.0294C51.3546 27.7867 51.7316 26.3792 51.7344 24.9461V7.89063C51.7344 7.57982 51.6109 7.28175 51.3911 7.06199C51.1714 6.84222 50.8733 6.71875 50.5625 6.71875Z" fill="#03A678"/>
<path d="M46.3977 10.3375C44.5665 9.41998 43.0813 7.93473 42.1637 6.10357C42.0665 5.90854 41.9169 5.74448 41.7316 5.62979C41.5463 5.51511 41.3328 5.45435 41.1149 5.45435H31.8852C31.6673 5.45435 31.4537 5.51511 31.2684 5.62979C31.0832 5.74448 30.9335 5.90854 30.8363 6.10357C29.9188 7.93473 28.4335 9.41998 26.6024 10.3375C26.4064 10.4352 26.2418 10.5857 26.127 10.7721C26.0123 10.9585 25.9521 11.1733 25.9531 11.3922V24.8536C25.9541 25.4679 26.1156 26.0712 26.4217 26.6038C26.7278 27.1364 27.1678 27.5798 27.6981 27.8899L35.9141 32.6805C36.0933 32.7851 36.2972 32.8402 36.5047 32.8402C36.7122 32.8402 36.9161 32.7851 37.0953 32.6805L45.3067 27.8899C45.8361 27.5792 46.2751 27.1356 46.5803 26.603C46.8856 26.0705 47.0464 25.4674 47.0469 24.8536V11.3864C47.0469 11.1685 46.9861 10.9549 46.8714 10.7696C46.7568 10.5844 46.5927 10.4347 46.3977 10.3375Z" fill="#EDEDED"/>
<path d="M68.1406 54.7656H42.3594C41.7122 54.7656 41.1875 55.2903 41.1875 55.9375V62.9688C41.1875 63.616 41.7122 64.1406 42.3594 64.1406H68.1406C68.7878 64.1406 69.3125 63.616 69.3125 62.9688V55.9375C69.3125 55.2903 68.7878 54.7656 68.1406 54.7656Z" fill="#03A678"/>
<path d="M64.6015 29.6758C63.9078 28.9811 63.084 28.4299 62.1771 28.0539C61.2702 27.6779 60.2981 27.4843 59.3164 27.4844L59.832 29.8516C60.8012 29.9553 61.7214 30.3311 62.4861 30.9356C63.2509 31.5401 63.829 32.3486 64.1537 33.2677C64.4785 34.1868 64.5366 35.179 64.3214 36.1298C64.1062 37.0805 63.6264 37.951 62.9375 38.6406L55.1796 46.4102C54.9614 46.6297 54.8389 46.9267 54.8389 47.2363C54.8389 47.5459 54.9614 47.8429 55.1796 48.0625C55.3992 48.2808 55.6962 48.4033 56.0058 48.4033C56.3154 48.4033 56.6124 48.2808 56.832 48.0625L64.6015 40.3047C66.0051 38.8921 66.7929 36.9816 66.7929 34.9902C66.7929 32.9989 66.0051 31.0884 64.6015 29.6758Z" fill="#F2CCCC"/>
<path d="M0.92888 35.302L9.44607 5.10625C9.69798 4.22252 10.2304 3.44466 10.9631 2.88999C11.6957 2.33532 12.5889 2.03392 13.5078 2.03125H14C14.6311 2.03077 15.2543 2.17189 15.8236 2.44421C16.3929 2.71654 16.8939 3.11313 17.2896 3.60477C17.6853 4.09641 17.9657 4.67057 18.1101 5.28494C18.2545 5.89932 18.2591 6.53826 18.1238 7.15469L13.1621 29.8492C13.9293 29.7652 14.7055 29.8553 15.4331 30.1128C16.1607 30.3702 16.8208 30.7885 17.3644 31.3363L25.6133 39.5852C26.4668 40.4338 27.1435 41.4433 27.6042 42.5553C28.0648 43.6673 28.3003 44.8597 28.2968 46.0633V55.9375C28.2968 56.2483 28.1734 56.5464 27.9536 56.7661C27.7338 56.9859 27.4358 57.1094 27.125 57.1094H8.37497C8.06417 57.1094 7.7661 56.9859 7.54633 56.7661C7.32656 56.5464 7.2031 56.2483 7.2031 55.9375V49.757L2.72302 44.1566C1.74269 42.929 1.06868 41.4857 0.756696 39.9459C0.444716 38.4062 0.503737 36.8144 0.92888 35.302Z" fill="#FFE3E3"/>
<path d="M30.6406 54.7656H4.85938C4.21217 54.7656 3.6875 55.2903 3.6875 55.9375V62.9688C3.6875 63.616 4.21217 64.1406 4.85938 64.1406H30.6406C31.2878 64.1406 31.8125 63.616 31.8125 62.9688V55.9375C31.8125 55.2903 31.2878 54.7656 30.6406 54.7656Z" fill="#03A678"/>
<path d="M8.39843 29.6758C9.09211 28.9811 9.91596 28.4299 10.8228 28.0539C11.7297 27.6779 12.7018 27.4843 13.6836 27.4844L13.168 29.8516C12.1987 29.9553 11.2786 30.3311 10.5138 30.9356C9.74909 31.5401 9.17095 32.3486 8.8462 33.2677C8.52145 34.1868 8.46333 35.179 8.67855 36.1298C8.89377 37.0805 9.37356 37.951 10.0625 38.6406L17.8203 46.4102C18.0386 46.6297 18.1611 46.9267 18.1611 47.2363C18.1611 47.5459 18.0386 47.8429 17.8203 48.0625C17.6007 48.2808 17.3037 48.4033 16.9941 48.4033C16.6845 48.4033 16.3875 48.2808 16.168 48.0625L8.39843 40.3047C6.99482 38.8921 6.20703 36.9816 6.20703 34.9902C6.20703 32.9989 6.99482 31.0884 8.39843 29.6758Z" fill="#F2CCCC"/>
<path d="M40.0156 17.2656H37.6719V14.9219C37.6719 14.6111 37.5484 14.313 37.3286 14.0932C37.1089 13.8735 36.8108 13.75 36.5 13.75C36.1892 13.75 35.8911 13.8735 35.6714 14.0932C35.4516 14.313 35.3281 14.6111 35.3281 14.9219V17.2656H32.9844C32.6736 17.2656 32.3755 17.3891 32.1557 17.6089C31.936 17.8286 31.8125 18.1267 31.8125 18.4375C31.8125 18.7483 31.936 19.0464 32.1557 19.2661C32.3755 19.4859 32.6736 19.6094 32.9844 19.6094H35.3281V21.9531C35.3281 22.2639 35.4516 22.562 35.6714 22.7818C35.8911 23.0015 36.1892 23.125 36.5 23.125C36.8108 23.125 37.1089 23.0015 37.3286 22.7818C37.5484 22.562 37.6719 22.2639 37.6719 21.9531V19.6094H40.0156C40.3264 19.6094 40.6245 19.4859 40.8443 19.2661C41.064 19.0464 41.1875 18.7483 41.1875 18.4375C41.1875 18.1267 41.064 17.8286 40.8443 17.6089C40.6245 17.3891 40.3264 17.2656 40.0156 17.2656Z" fill="#2A3143"/>
</svg>
