<svg width="65" height="71" viewBox="0 0 65 71" fill="none" xmlns="http://www.w3.org/2000/svg">
<path d="M36.1094 21.543H28.9844C28.052 21.543 27.1578 21.9134 26.4985 22.5727C25.8391 23.232 25.4688 24.1262 25.4688 25.0586H24.2969C23.3645 25.0586 22.4703 25.429 21.811 26.0883C21.1516 26.7476 20.7813 27.6418 20.7812 28.5742V35.9336C21.134 35.7179 21.5397 35.6043 21.9531 35.6055H25.4688V30.918C25.4688 30.918 28.9844 33.2617 39.5312 33.2617V35.6055H43.0469C43.4603 35.6043 43.866 35.7179 44.2188 35.9336V29.6523C44.2181 27.5018 43.3636 25.4395 41.8429 23.9188C40.3222 22.3982 38.2599 21.5436 36.1094 21.543Z" fill="#494A59"/>
<path d="M43.0469 34.4336H38.3594V37.9492C38.3615 38.7485 38.2227 39.5419 37.9492 40.293H43.0469C43.6685 40.293 44.2646 40.046 44.7042 39.6065C45.1437 39.167 45.3906 38.5708 45.3906 37.9492V36.7773C45.3888 36.1563 45.1412 35.5612 44.7021 35.1221C44.263 34.683 43.6679 34.4354 43.0469 34.4336Z" fill="#F2C7C7"/>
<path d="M26.6406 37.9492V34.4336H21.9531C21.3321 34.4354 20.737 34.683 20.2979 35.1221C19.8588 35.5612 19.6112 36.1563 19.6094 36.7773V37.9492C19.6094 38.5708 19.8563 39.167 20.2958 39.6065C20.7354 40.046 21.3315 40.293 21.9531 40.293H27.0508C26.7773 39.5419 26.6385 38.7485 26.6406 37.9492Z" fill="#F2C7C7"/>
<path d="M32.5 43.8086C30.7695 43.8111 29.0995 43.1723 27.8125 42.0156V47.3242L32.5 52.0117L37.1875 47.3242V42.0156C35.9005 43.1723 34.2305 43.8111 32.5 43.8086Z" fill="#F2C7C7"/>
<path d="M48.8828 53.0078L43.0469 49.668L37.1875 46.1523L32.5 50.8398L27.8125 46.1523L21.9531 49.668L16.1172 53.0078C15.3975 53.4178 14.7993 54.0112 14.3835 54.7276C13.9677 55.4439 13.7491 56.2576 13.75 57.0859V69.5898C13.75 69.9006 13.8735 70.1987 14.0932 70.4185C14.313 70.6383 14.6111 70.7617 14.9219 70.7617H50.0781C50.3889 70.7617 50.687 70.6383 50.9068 70.4185C51.1265 70.1987 51.25 69.9006 51.25 69.5898V57.0859C51.2509 56.2576 51.0323 55.4439 50.6165 54.7276C50.2007 54.0112 49.6025 53.4178 48.8828 53.0078Z" fill="#DDDDDD"/>
<path d="M25.4688 29.7507V37.9539C25.4688 39.8187 26.2095 41.6071 27.5282 42.9257C28.8468 44.2443 30.6352 44.9851 32.5 44.9851C34.3648 44.9851 36.1532 44.2443 37.4718 42.9257C38.7905 41.6071 39.5312 39.8187 39.5312 37.9539V32.0945C28.9844 32.0945 25.4688 29.7507 25.4688 29.7507Z" fill="#FFE1E1"/>
<path d="M43.0469 49.6726L37.1875 46.157L32.5 50.8445L38.3594 54.3601L43.0469 49.6726Z" fill="#EDEDED"/>
<path d="M21.9531 49.6726L27.8125 46.157L32.5 50.8445L26.6406 54.3601L21.9531 49.6726Z" fill="#EDEDED"/>
<path d="M27.8125 70.7617L30.1562 57.8711L27.9883 53.5469L32.5 50.8398L37.0117 53.5469L34.8438 57.8711L37.1875 70.7617H27.8125Z" fill="#03A678"/>
<path d="M32.5 50.8398L27.9883 53.5469L30.1563 57.8711L30.1551 57.8758H34.8449L34.8438 57.8711L37.0117 53.5469L32.5 50.8398Z" fill="#2A3143"/>
<path d="M45.3906 59.043V70.6328H43.0469V59.043C43.0469 58.7322 43.1703 58.4341 43.3901 58.2143C43.6099 57.9946 43.9079 57.8711 44.2188 57.8711C44.5296 57.8711 44.8276 57.9946 45.0474 58.2143C45.2672 58.4341 45.3906 58.7322 45.3906 59.043Z" fill="#EDEDED"/>
<path d="M21.9531 59.043V70.6328H19.6094V59.043C19.6094 58.7322 19.7328 58.4341 19.9526 58.2143C20.1724 57.9946 20.4704 57.8711 20.7812 57.8711C21.0921 57.8711 21.3901 57.9946 21.6099 58.2143C21.8297 58.4341 21.9531 58.7322 21.9531 59.043Z" fill="#EDEDED"/>
<path d="M38.528 4.45578L35.0885 3.95539L33.5546 0.839378C33.4468 0.656399 33.2931 0.504719 33.1088 0.399338C32.9244 0.293957 32.7157 0.238525 32.5034 0.238525C32.291 0.238525 32.0824 0.293957 31.898 0.399338C31.7136 0.504719 31.56 0.656399 31.4522 0.839378L29.9112 3.95539L26.4717 4.45578C26.2553 4.48702 26.052 4.57817 25.8847 4.71893C25.7174 4.85969 25.5928 5.04445 25.525 5.25232C25.4572 5.46019 25.449 5.68287 25.5011 5.8952C25.5533 6.10753 25.6638 6.30103 25.8202 6.45383L28.3081 8.87961L27.7221 12.305C27.6852 12.5205 27.7093 12.7421 27.7917 12.9446C27.8741 13.1471 28.0116 13.3225 28.1885 13.451C28.3654 13.5795 28.5747 13.656 28.7928 13.6717C29.0109 13.6875 29.229 13.6419 29.4225 13.5402L32.4999 11.923L35.576 13.5402C35.7696 13.6419 35.9877 13.6875 36.2058 13.6717C36.4239 13.656 36.6332 13.5795 36.8101 13.451C36.987 13.3225 37.1244 13.1471 37.2068 12.9446C37.2893 12.7421 37.3134 12.5205 37.2764 12.305L36.6905 8.87961L39.1796 6.45383C39.3342 6.30097 39.4432 6.10809 39.4945 5.89679C39.5458 5.68548 39.5373 5.46407 39.4699 5.25733C39.4025 5.05059 39.279 4.86668 39.113 4.72615C38.9471 4.58563 38.7453 4.49405 38.5303 4.46164L38.528 4.45578Z" fill="#03A678"/>
<path d="M51.3554 20.7062C51.5261 20.7062 51.6947 20.669 51.8495 20.5971C52.0044 20.5252 52.1416 20.4203 52.2516 20.2899C52.3617 20.1594 52.4419 20.0064 52.4867 19.8417C52.5315 19.677 52.5397 19.5045 52.5109 19.3363L51.9249 15.9109L54.4128 13.4851C54.5675 13.3322 54.6765 13.1393 54.7278 12.928C54.7791 12.7167 54.7705 12.4953 54.7032 12.2886C54.6358 12.0818 54.5122 11.8979 54.3463 11.7574C54.1804 11.6169 53.9786 11.5253 53.7636 11.4929L50.3241 10.9925L48.789 7.87063C48.6812 7.68765 48.5276 7.53597 48.3432 7.43059C48.1588 7.32521 47.9502 7.26978 47.7378 7.26978C47.5255 7.26978 47.3168 7.32521 47.1324 7.43059C46.9481 7.53597 46.7944 7.68765 46.6866 7.87063L45.1491 10.9866L41.7097 11.487C41.4935 11.5186 41.2904 11.61 41.1234 11.751C40.9564 11.8919 40.8322 12.0766 40.7646 12.2845C40.6971 12.4923 40.689 12.7148 40.7413 12.927C40.7936 13.1391 40.9041 13.3324 41.0605 13.4851L43.5484 15.9109L42.9624 19.3363C42.9255 19.5518 42.9496 19.7733 43.032 19.9758C43.1144 20.1784 43.2518 20.3538 43.4287 20.4823C43.6057 20.6108 43.815 20.6872 44.0331 20.703C44.2511 20.7187 44.4693 20.6732 44.6628 20.5714L47.7343 18.9542L50.8105 20.5714C50.9785 20.6598 51.1655 20.7061 51.3554 20.7062Z" fill="#03A678"/>
<path d="M64.0831 25.1745C64.0154 24.9667 63.891 24.782 63.7239 24.6412C63.5568 24.5004 63.3536 24.4091 63.1374 24.3777L59.6979 23.8773L58.1639 20.7613C58.0562 20.5783 57.9025 20.4266 57.7182 20.3212C57.5338 20.2158 57.3251 20.1604 57.1128 20.1604C56.9004 20.1604 56.6917 20.2158 56.5074 20.3212C56.323 20.4266 56.1694 20.5783 56.0616 20.7613L54.5241 23.8773L51.0846 24.3777C50.8696 24.4101 50.6679 24.5016 50.5019 24.6422C50.336 24.7827 50.2124 24.9666 50.1451 25.1733C50.0777 25.3801 50.0692 25.6015 50.1205 25.8128C50.1717 26.0241 50.2808 26.217 50.4354 26.3698L52.9233 28.7956L52.3374 32.221C52.3005 32.4365 52.3246 32.6581 52.407 32.8606C52.4894 33.0631 52.6268 33.2386 52.8037 33.3671C52.9806 33.4956 53.1899 33.572 53.408 33.5878C53.6261 33.6035 53.8442 33.5579 54.0378 33.4562L57.1092 31.8448L60.1854 33.462C60.379 33.5638 60.5971 33.6094 60.8152 33.5936C61.0333 33.5779 61.2426 33.5014 61.4195 33.3729C61.5964 33.2444 61.7338 33.069 61.8162 32.8665C61.8986 32.6639 61.9227 32.4424 61.8858 32.2269L61.2999 28.8015L63.7878 26.3757C63.9441 26.223 64.0546 26.0295 64.1068 25.8173C64.159 25.605 64.1508 25.3824 64.0831 25.1745Z" fill="#03A678"/>
<path d="M13.9187 24.3777L10.4793 23.8773L8.94528 20.7613C8.83752 20.5783 8.68386 20.4266 8.4995 20.3212C8.31514 20.2158 8.10647 20.1604 7.89411 20.1604C7.68176 20.1604 7.47308 20.2158 7.28872 20.3212C7.10436 20.4266 6.9507 20.5783 6.84294 20.7613L5.30193 23.8773L1.86247 24.3777C1.64746 24.4101 1.4457 24.5016 1.27977 24.6422C1.11384 24.7827 0.990278 24.9666 0.922906 25.1733C0.855533 25.3801 0.847009 25.6015 0.898285 25.8128C0.949562 26.0241 1.05862 26.217 1.21325 26.3698L3.70114 28.7956L3.11521 32.221C3.07828 32.4365 3.10238 32.6581 3.18479 32.8606C3.2672 33.0631 3.40463 33.2386 3.58153 33.3671C3.75843 33.4956 3.96776 33.572 4.18584 33.5878C4.40393 33.6035 4.62207 33.5579 4.8156 33.4562L7.8906 31.8448L10.9668 33.462C11.1603 33.5638 11.3784 33.6094 11.5965 33.5936C11.8146 33.5779 12.0239 33.5014 12.2008 33.3729C12.3777 33.2444 12.5152 33.069 12.5976 32.8665C12.68 32.6639 12.7041 32.4424 12.6672 32.2269L12.0812 28.8015L14.5691 26.3757C14.7237 26.2228 14.8328 26.03 14.8841 25.8187C14.9354 25.6074 14.9268 25.3859 14.8595 25.1792C14.7921 24.9725 14.6685 24.7886 14.5026 24.648C14.3367 24.5075 14.1349 24.4159 13.9199 24.3835L13.9187 24.3777Z" fill="#03A678"/>
<path d="M23.2937 11.487L19.8542 10.9866L18.3202 7.87063C18.2125 7.68765 18.0588 7.53597 17.8745 7.43059C17.6901 7.32521 17.4814 7.26978 17.2691 7.26978C17.0567 7.26978 16.848 7.32521 16.6637 7.43059C16.4793 7.53597 16.3257 7.68765 16.2179 7.87063L14.6804 10.9866L11.2409 11.487C11.0247 11.5186 10.8217 11.61 10.6547 11.751C10.4877 11.8919 10.3634 12.0766 10.2959 12.2845C10.2284 12.4923 10.2203 12.7148 10.2726 12.927C10.3248 13.1391 10.4354 13.3324 10.5917 13.4851L13.0796 15.9109L12.4937 19.3363C12.4568 19.5518 12.4809 19.7733 12.5633 19.9758C12.6457 20.1784 12.7831 20.3538 12.96 20.4823C13.1369 20.6108 13.3462 20.6872 13.5643 20.703C13.7824 20.7187 14.0005 20.6732 14.1941 20.5714L17.2656 18.9542L20.3417 20.5714C20.5353 20.6732 20.7534 20.7187 20.9715 20.703C21.1896 20.6872 21.3989 20.6108 21.5758 20.4823C21.7527 20.3538 21.8901 20.1784 21.9725 19.9758C22.0549 19.7733 22.079 19.5518 22.0421 19.3363L21.4562 15.9109L23.9441 13.4851C24.0987 13.3322 24.2078 13.1393 24.259 12.928C24.3103 12.7167 24.3018 12.4953 24.2344 12.2886C24.167 12.0818 24.0435 11.8979 23.8776 11.7574C23.7116 11.6169 23.5099 11.5253 23.2949 11.4929L23.2937 11.487Z" fill="#03A678"/>
</svg>
