<svg width="583" height="347" viewBox="0 0 583 347" fill="none" xmlns="http://www.w3.org/2000/svg">
<g clip-path="url(#clip0_81_3216)">
<g opacity="0.08">
<path d="M140.325 98.9509H140.042L140.325 99.2344H140.608L140.325 98.9509Z" fill="white"/>
<path d="M159.6 104.053L158.75 104.337L159.033 104.62L159.6 104.337V104.053Z" fill="white"/>
<path d="M178.308 110.005C178.592 109.722 178.308 109.438 178.025 109.438C177.458 109.438 176.891 110.005 177.175 110.289C177.175 110.289 177.175 110.289 177.458 110.289C177.741 110.289 178.025 110.289 178.308 110.005Z" fill="white"/>
<path d="M196.734 115.958C197.018 115.674 197.018 115.391 196.168 115.108C195.317 115.108 194.75 115.674 195.034 115.958C195.034 115.958 195.034 115.958 195.317 115.958C195.884 116.525 196.451 116.241 196.734 115.958Z" fill="white"/>
<path d="M214.593 122.193C214.876 121.909 214.876 121.343 214.309 121.343C213.459 121.343 212.325 121.909 212.608 122.193C212.608 122.193 212.892 122.193 212.892 122.476C213.742 122.76 214.309 122.476 214.593 122.193Z" fill="white"/>
<path d="M232.167 128.997C232.734 128.43 232.734 128.146 231.884 127.863C231.034 127.579 229.333 128.43 229.9 128.997C229.9 128.997 230.183 128.997 230.183 129.28C231.034 129.563 231.884 128.997 232.167 128.997Z" fill="white"/>
<path d="M249.175 135.798C249.742 135.515 249.742 134.948 249.175 134.665C248.041 134.381 246.057 135.231 246.624 135.798C246.624 136.082 246.907 136.082 246.907 136.082C247.758 136.365 248.608 136.082 249.175 135.798Z" fill="white"/>
<path d="M265.9 142.885C266.751 142.601 266.751 142.035 265.9 141.751C264.766 141.184 262.215 142.035 262.782 142.885L263.065 143.168C263.916 143.452 265.05 143.452 265.9 142.885Z" fill="white"/>
<path d="M281.774 150.538C282.624 150.254 282.624 149.687 282.057 149.404C280.924 148.837 278.372 149.687 278.656 150.538L278.939 150.821C279.79 151.105 281.207 150.821 281.774 150.538Z" fill="white"/>
<path d="M297.08 158.191C297.931 157.907 298.214 157.341 297.364 157.057C295.946 156.49 293.395 157.341 293.679 158.191L293.962 158.474C294.813 158.758 296.23 158.474 297.08 158.191Z" fill="white"/>
<path d="M312.105 166.128C312.955 165.844 313.239 165.277 312.672 164.994C311.538 164.427 308.42 165.277 308.703 165.844L308.987 166.128C309.554 166.694 310.971 166.694 312.105 166.128Z" fill="white"/>
<path d="M325.995 174.632C327.129 174.348 327.412 173.781 326.562 173.498C325.144 172.931 322.026 173.781 322.31 174.632C322.31 174.632 322.31 174.915 322.593 174.915C323.727 174.915 325.144 174.915 325.995 174.632Z" fill="white"/>
<path d="M339.318 183.135C340.452 182.851 340.735 182.284 340.168 182.001C339.034 181.434 335.633 182.001 335.916 182.851C335.916 182.851 335.916 183.135 336.2 183.135C336.767 183.418 338.467 183.418 339.318 183.135Z" fill="white"/>
<path d="M351.789 191.637C352.923 191.354 353.206 190.787 352.64 190.503C351.506 189.936 348.104 190.503 348.388 191.354C348.388 191.354 348.388 191.637 348.671 191.637C349.238 191.92 350.655 191.92 351.789 191.637Z" fill="white"/>
<path d="M362.845 200.141C363.979 199.858 364.546 199.574 363.979 199.007C362.845 198.44 359.727 199.007 359.727 199.574C359.727 199.574 359.727 199.574 359.727 199.858C360.577 200.424 361.995 200.424 362.845 200.141Z" fill="white"/>
<path d="M373.333 208.644C374.466 208.361 375.033 208.077 374.466 207.794C373.616 207.227 369.931 207.794 370.214 208.361C370.781 208.928 372.199 208.928 373.333 208.644Z" fill="white"/>
<path d="M382.404 217.148C383.538 216.864 384.105 216.581 383.538 216.297C382.687 215.731 379.569 216.014 379.569 216.864C380.42 217.431 381.837 217.431 382.404 217.148Z" fill="white"/>
<path d="M390.908 225.935C391.758 225.935 392.325 225.368 392.042 225.368C391.191 224.801 388.357 225.084 388.357 225.651C388.924 225.935 390.057 225.935 390.908 225.935Z" fill="white"/>
<path d="M398.278 234.438C399.129 234.438 399.696 234.155 399.412 233.872C398.845 233.305 396.01 233.588 396.01 234.155C396.294 234.438 397.428 234.438 398.278 234.438Z" fill="white"/>
<path d="M404.515 242.941C405.365 242.941 405.649 242.658 405.649 242.375C405.082 242.091 402.814 242.091 402.814 242.375C403.097 242.941 403.948 242.941 404.515 242.941Z" fill="white"/>
<path d="M410.183 251.445C410.75 251.445 411.034 251.161 411.034 251.161C410.75 250.878 408.766 250.878 408.766 251.161C408.766 251.445 409.617 251.445 410.183 251.445Z" fill="white"/>
<path d="M415.286 259.665L414.152 259.381L413.585 259.665H414.435H415.286Z" fill="white"/>
<path d="M418.404 268.168L417.837 267.885L417.553 268.168H418.12H418.404Z" fill="white"/>
<path d="M68.0413 64.938H67.7578L68.0413 65.5049L68.3247 65.2214L68.0413 64.938Z" fill="white"/>
<path d="M90.1523 69.4727C90.1523 68.9058 89.5854 68.6224 89.0185 68.9058C88.4515 69.1892 88.735 69.7561 89.0185 69.7561C89.5854 70.0396 89.8689 69.7561 90.1523 69.4727Z" fill="white"/>
<path d="M111.411 74.0077C111.694 73.4408 110.844 72.8739 109.993 73.1574C109.427 73.4408 109.143 74.2912 109.993 74.5746C110.844 74.8581 111.411 74.2911 111.411 74.0077Z" fill="white"/>
<path d="M132.672 79.1098C132.955 78.2594 132.105 77.6925 130.971 77.976C129.837 78.2594 129.837 79.3932 130.688 79.6767H130.971C131.822 79.9601 132.672 79.3932 132.672 79.1098Z" fill="white"/>
<path d="M153.648 84.4952C154.214 83.6448 153.081 82.7945 151.663 83.078C150.246 83.3614 149.679 84.7786 150.813 85.0621C150.813 85.0621 151.096 85.0621 151.096 85.3455C152.514 85.629 153.364 85.0621 153.648 84.4952Z" fill="white"/>
<path d="M174.34 90.1644C174.907 89.0306 174.057 88.1803 172.639 88.4637C170.939 88.7472 170.088 90.1644 171.222 91.0147C171.222 91.0147 171.506 91.2982 171.789 91.2982C172.639 91.5816 173.773 90.7313 174.34 90.1644Z" fill="white"/>
<path d="M194.467 96.4002C195.317 95.2665 194.183 94.1327 192.483 94.4161C190.498 94.6996 189.364 96.4003 190.498 97.2506C190.782 97.2506 190.782 97.534 191.065 97.534C192.766 97.8175 194.183 96.9671 194.467 96.4002Z" fill="white"/>
<path d="M214.309 102.919C215.443 101.785 214.593 100.651 212.609 100.651C210.624 100.651 208.64 102.352 209.774 103.486C210.057 103.769 210.341 103.769 210.341 103.769C212.325 104.336 213.743 103.486 214.309 102.919Z" fill="white"/>
<path d="M233.869 109.722C235.002 108.588 234.435 107.171 232.451 107.171C229.9 107.171 227.632 108.872 228.766 110.289C229.05 110.572 229.333 110.572 229.333 110.572C231.317 111.139 233.018 110.289 233.869 109.722Z" fill="white"/>
<path d="M252.861 116.808C254.278 115.674 253.711 114.257 251.444 114.257C248.892 114.257 246.058 115.958 247.192 117.375C247.475 117.658 247.759 117.658 247.759 117.942C249.743 118.225 252.011 117.658 252.861 116.808Z" fill="white"/>
<path d="M271.286 124.178C272.703 123.044 272.42 121.627 270.435 121.343C267.601 121.06 264.199 123.044 265.333 124.461C265.616 124.745 265.9 124.745 265.9 125.028C267.884 125.878 270.152 125.028 271.286 124.178Z" fill="white"/>
<path d="M289.144 132.114C290.845 130.981 290.562 129.563 288.577 129.28C285.743 128.713 282.058 130.981 282.908 132.398C283.192 132.681 283.475 132.681 283.475 132.965C285.459 133.532 288.01 132.965 289.144 132.114Z" fill="white"/>
<path d="M306.436 140.051C308.136 138.917 308.136 137.5 306.436 137.216C303.601 136.366 299.066 138.634 299.916 140.334C300.199 140.618 300.199 140.901 300.483 140.901C302.467 141.752 305.018 140.901 306.436 140.051Z" fill="white"/>
<path d="M322.877 148.554C324.861 147.421 324.862 146.003 323.161 145.436C320.326 144.586 315.224 146.57 316.074 148.271C316.074 148.554 316.358 148.838 316.641 148.838C318.625 149.972 321.46 149.405 322.877 148.554Z" fill="white"/>
<path d="M338.75 157.34C340.734 156.207 341.018 155.073 339.317 154.506C336.199 153.656 330.813 155.64 331.947 157.34C331.947 157.624 332.23 157.624 332.514 157.907C334.498 158.758 337.333 157.907 338.75 157.34Z" fill="white"/>
<path d="M354.057 166.411C356.325 165.561 356.608 164.143 354.908 163.293C351.79 162.159 346.12 164.427 347.254 166.127C347.254 166.411 347.538 166.411 347.821 166.694C349.522 167.545 352.64 166.978 354.057 166.411Z" fill="white"/>
<path d="M368.514 175.482C370.782 174.631 371.349 173.214 369.648 172.647C366.813 171.513 360.86 173.498 361.711 175.198C361.711 175.482 361.994 175.482 362.278 175.765C363.695 176.615 366.813 176.049 368.514 175.482Z" fill="white"/>
<path d="M381.553 184.552C383.821 183.701 384.388 182.568 383.254 182.001C380.986 180.584 374.183 182.568 375.033 184.268C375.033 184.552 375.317 184.552 375.317 184.835C376.734 185.686 379.852 185.402 381.553 184.552Z" fill="white"/>
<path d="M393.742 193.905C396.01 193.055 396.86 191.921 395.443 191.354C393.175 189.937 386.655 191.638 386.939 193.338C386.939 193.622 387.222 193.622 387.222 193.905C388.923 194.756 392.041 194.472 393.742 193.905Z" fill="white"/>
<path d="M404.797 203.259C407.065 202.692 407.916 201.558 406.782 200.991C404.797 199.574 398.278 200.991 398.561 202.692C398.561 202.976 398.845 202.976 398.845 202.976C399.979 203.826 403.097 203.542 404.797 203.259Z" fill="white"/>
<path d="M414.72 212.33C416.987 211.763 417.838 210.912 416.987 210.062C415.003 208.928 408.483 210.346 408.767 211.763C408.767 211.763 408.767 212.046 409.05 212.046C410.184 213.18 413.019 212.897 414.72 212.33Z" fill="white"/>
<path d="M423.507 221.683C425.775 221.116 426.625 220.266 425.491 219.699C423.507 218.565 417.554 219.983 417.838 221.116V221.4C419.255 222.25 422.09 221.967 423.507 221.683Z" fill="white"/>
<path d="M431.443 231.036C433.711 230.47 434.562 229.619 433.711 229.052C432.01 227.919 426.341 229.052 426.341 230.47V230.753C427.191 231.32 429.743 231.32 431.443 231.036Z" fill="white"/>
<path d="M438.246 240.107C440.231 239.823 441.364 238.973 440.514 238.406C438.813 237.272 433.144 238.406 433.711 239.54C434.278 240.39 436.829 240.39 438.246 240.107Z" fill="white"/>
<path d="M444.199 249.178C446.183 248.894 447.033 248.044 446.466 247.76C445.049 246.91 439.947 247.477 440.23 248.611C440.514 249.461 442.781 249.461 444.199 249.178Z" fill="white"/>
<path d="M448.735 258.247C450.435 257.964 451.286 257.397 450.719 257.114C449.585 256.263 445.05 256.83 445.05 257.681C445.616 258.531 447.601 258.531 448.735 258.247Z" fill="white"/>
<path d="M452.704 267.318C454.121 267.034 455.255 266.751 454.688 266.184C453.837 265.333 449.585 265.9 449.585 266.751C449.869 267.318 451.57 267.601 452.704 267.318Z" fill="white"/>
<path d="M455.255 276.388C456.388 276.388 457.239 275.821 456.955 275.537C456.388 274.97 452.987 275.254 452.703 275.821C452.987 276.388 454.404 276.388 455.255 276.388Z" fill="white"/>
<path d="M456.956 284.891C457.806 284.891 458.656 284.608 458.373 284.324C458.09 283.758 455.255 284.041 455.255 284.608C455.255 284.891 456.389 285.175 456.956 284.891Z" fill="white"/>
<path d="M457.806 293.678C458.373 293.678 458.94 293.395 458.94 293.111C458.656 292.828 456.672 292.828 456.672 293.395C456.388 293.678 457.239 293.678 457.806 293.678Z" fill="white"/>
<path d="M458.089 302.182L457.522 301.898L456.672 302.182H457.522H458.089Z" fill="white"/>
<path d="M456.388 310.685V310.402L455.821 310.685H456.105H456.388Z" fill="white"/>
<path d="M4.54494 35.46L4.26147 35.7434L4.54494 36.0269H4.8284L4.54494 35.46Z" fill="white"/>
<path d="M28.3554 39.1436C28.3554 38.5767 27.505 38.2932 27.2215 38.5767C26.9381 38.8601 26.9381 39.427 27.7885 39.7104C28.0719 39.7104 28.3554 39.427 28.3554 39.1436Z" fill="white"/>
<path d="M51.8837 42.8291C51.8837 41.9788 50.7499 41.4119 49.8995 41.9788C49.3326 42.5457 49.3326 43.396 50.4664 43.6795C51.6003 43.9629 51.8837 43.396 51.8837 42.8291Z" fill="white"/>
<path d="M75.4118 47.0806C75.6953 45.9468 73.9945 45.0964 72.8606 45.9468C72.0102 46.5137 72.0102 47.9309 73.4276 48.2144C74.5614 48.2144 75.1284 47.6475 75.4118 47.0806Z" fill="white"/>
<path d="M98.3717 51.616C98.6552 50.1987 96.9544 49.3484 95.2536 50.1987C93.8363 51.0491 94.1197 52.4663 95.5371 53.0332C95.5371 53.0332 95.5371 53.0332 95.8205 53.0332C97.2379 53.0332 98.3717 52.1829 98.3717 51.616Z" fill="white"/>
<path d="M121.333 56.4341C121.9 54.7334 119.633 53.5996 117.932 54.45C116.231 55.3003 116.231 57.2844 117.932 57.8513H118.215C119.916 58.4182 121.05 57.2844 121.333 56.4341Z" fill="white"/>
<path d="M144.009 61.8199C144.859 60.1193 142.592 58.702 140.324 59.5524C138.34 60.4027 138.056 62.6703 139.757 63.2372C139.757 63.2372 140.04 63.2372 140.324 63.5206C142.308 64.0875 143.725 62.9537 144.009 61.8199Z" fill="white"/>
<path d="M166.405 67.7725C167.255 65.7884 164.988 64.0877 162.436 65.2215C160.169 66.0718 159.602 68.6228 161.303 69.4731C161.586 69.4731 161.586 69.7566 161.87 69.7566C164.421 70.04 166.122 68.6228 166.405 67.7725Z" fill="white"/>
<path d="M188.514 73.7245C189.647 71.7404 187.38 69.7563 184.828 70.6066C181.994 71.457 180.86 74.008 182.844 75.1417C183.128 75.4252 183.411 75.4252 183.695 75.4252C185.962 76.2755 187.947 74.8583 188.514 73.7245Z" fill="white"/>
<path d="M210.342 80.5275C211.759 78.5433 209.775 76.2758 206.657 76.8427C203.255 77.4095 201.555 80.5275 203.539 81.9447C204.106 82.2281 204.389 82.2281 204.673 82.5116C207.224 83.0785 209.492 81.6612 210.342 80.5275Z" fill="white"/>
<path d="M231.6 87.3295C233.301 85.0619 231.316 82.7944 227.915 83.3612C224.23 83.9281 222.246 87.3295 224.23 88.7467C224.513 89.0302 224.797 89.0302 225.08 89.3136C227.915 90.1639 230.749 88.7467 231.6 87.3295Z" fill="white"/>
<path d="M252.293 94.6991C254.278 92.4316 252.577 90.164 249.175 90.4474C245.207 90.7309 242.089 94.1322 244.356 96.1163C244.64 96.3998 245.207 96.3998 245.49 96.6832C248.325 97.5336 251.16 96.1163 252.293 94.6991Z" fill="white"/>
<path d="M272.704 102.352C274.971 100.085 273.271 97.5338 269.586 97.8173C265.334 98.1007 261.649 101.502 264.2 103.77C264.483 104.053 264.767 104.337 265.05 104.337C268.168 105.187 271.286 103.77 272.704 102.352Z" fill="white"/>
<path d="M292.261 110.289C294.529 108.021 293.395 105.754 289.994 105.47C285.458 105.187 280.923 109.155 283.19 111.422C283.474 111.706 283.757 111.989 284.041 111.989C287.442 113.407 290.844 111.706 292.261 110.289Z" fill="white"/>
<path d="M311.255 118.792C313.806 116.524 312.672 113.973 309.27 113.69C304.451 113.406 299.632 117.374 301.9 119.642C302.184 119.925 302.467 120.209 302.751 120.209C306.152 121.626 309.837 120.209 311.255 118.792Z" fill="white"/>
<path d="M329.963 127.579C332.797 125.311 331.947 122.76 328.262 122.477C323.443 121.91 317.774 126.162 320.041 128.429C320.325 128.713 320.608 128.996 320.892 128.996C324.01 130.413 327.978 128.996 329.963 127.579Z" fill="white"/>
<path d="M347.537 136.649C350.372 134.665 350.089 132.114 346.687 131.547C341.868 130.697 335.348 134.665 337.333 137.499C337.616 137.783 337.9 138.066 338.183 138.35C341.301 139.2 345.553 138.066 347.537 136.649Z" fill="white"/>
<path d="M364.547 146.003C367.665 144.019 367.381 141.468 364.263 140.617C359.444 139.484 352.358 143.452 354.342 146.286C354.625 146.57 354.909 146.853 355.192 147.137C358.027 148.554 362.562 147.137 364.547 146.003Z" fill="white"/>
<path d="M380.703 155.64C383.821 153.656 383.821 151.105 380.703 150.255C375.884 149.121 368.514 152.806 370.215 155.64C370.498 155.924 370.782 156.207 371.065 156.49C374.183 157.908 378.719 156.774 380.703 155.64Z" fill="white"/>
<path d="M396.011 165.278C399.412 163.577 399.696 161.026 396.578 160.176C392.042 159.042 384.389 162.443 385.806 165.278C386.089 165.561 386.373 165.845 386.656 166.128C389.208 167.545 393.743 166.695 396.011 165.278Z" fill="white"/>
<path d="M409.9 175.197C413.018 173.497 413.869 171.229 411.318 170.379C407.066 168.678 398.562 172.079 399.696 175.197C399.696 175.481 399.979 175.764 400.263 176.048C403.097 177.465 407.633 176.331 409.9 175.197Z" fill="white"/>
<path d="M422.938 185.118C426.34 183.701 427.19 181.433 424.923 180.3C420.954 178.599 412.45 182 413.301 184.551C413.301 184.835 413.584 185.118 413.868 185.402C415.852 187.102 420.387 186.252 422.938 185.118Z" fill="white"/>
<path d="M434.561 195.039C437.962 193.622 438.813 191.638 436.829 190.504C433.143 188.803 424.073 192.205 425.206 194.756C425.206 195.039 425.49 195.039 425.49 195.323C427.758 196.74 432.01 195.889 434.561 195.039Z" fill="white"/>
<path d="M445.05 204.96C448.452 203.826 449.586 201.842 447.601 200.708C444.2 199.007 435.129 202.125 436.263 204.676C436.263 204.96 436.546 204.96 436.546 205.243C438.247 206.377 442.782 205.81 445.05 204.96Z" fill="white"/>
<path d="M454.403 214.597C457.521 213.463 458.939 211.479 457.238 210.628C454.12 208.928 445.616 211.762 446.183 214.03L446.466 214.313C448.167 216.014 452.136 215.447 454.403 214.597Z" fill="white"/>
<path d="M462.907 224.517C466.025 223.384 467.443 221.683 466.025 220.833C463.191 219.132 454.97 221.683 455.254 223.951C455.254 223.951 455.254 224.234 455.537 224.234C456.388 225.651 460.073 225.368 462.907 224.517Z" fill="white"/>
<path d="M469.994 234.438C473.112 233.588 474.53 231.887 473.112 231.037C470.561 229.336 462.057 231.887 462.908 233.871C462.908 233.871 462.908 233.871 462.908 234.155C464.042 235.288 467.727 235.005 469.994 234.438Z" fill="white"/>
<path d="M476.231 244.075C479.349 243.225 480.766 241.808 479.066 240.957C476.514 239.824 469.144 241.808 469.711 243.508C469.711 243.508 469.711 243.508 469.711 243.792C470.562 244.926 473.963 244.642 476.231 244.075Z" fill="white"/>
<path d="M481.05 253.712C483.885 253.146 485.302 251.728 483.885 250.878C481.901 249.744 475.097 251.445 475.097 253.146C475.097 253.146 475.097 253.146 475.097 253.429C476.231 254.563 479.349 254.279 481.05 253.712Z" fill="white"/>
<path d="M485.018 263.35C487.569 262.783 488.986 261.649 487.853 261.082C486.152 259.948 479.349 261.365 479.632 263.066C480.483 263.916 483.317 263.916 485.018 263.35Z" fill="white"/>
<path d="M487.852 272.987C490.119 272.42 491.537 271.569 490.686 271.003C489.269 270.152 483.316 271.003 483.6 272.703C483.883 273.27 486.434 273.27 487.852 272.987Z" fill="white"/>
<path d="M489.837 282.34C491.821 282.057 493.239 281.206 492.388 280.64C491.254 279.789 485.869 280.64 485.869 282.057C486.152 282.624 488.42 282.624 489.837 282.34Z" fill="white"/>
<path d="M490.404 291.694C491.821 291.41 493.238 290.844 492.671 290.277C491.821 289.71 487.285 290.277 487.285 291.127C487.569 291.694 489.27 291.694 490.404 291.694Z" fill="white"/>
<path d="M490.121 300.764C491.539 300.481 492.389 299.914 492.106 299.63C491.539 299.063 487.854 299.347 487.57 300.197C487.57 300.764 488.987 300.764 490.121 300.764Z" fill="white"/>
<path d="M488.702 309.551C489.836 309.551 490.686 308.984 490.119 308.7C489.552 308.417 487.001 308.7 486.718 309.267C487.001 309.834 487.852 309.834 488.702 309.551Z" fill="white"/>
<path d="M486.152 318.338C487.002 318.338 487.569 318.055 487.286 317.771C487.002 317.488 485.018 317.771 485.018 318.055C485.018 318.338 485.868 318.622 486.152 318.338Z" fill="white"/>
<path d="M483.317 326.841L483.034 326.558L482.184 326.841L482.751 327.125L483.317 326.841Z" fill="white"/>
<path d="M7.37858 15.0513C7.37858 13.9176 5.96125 13.6341 5.11086 14.201C4.54393 14.7679 4.8274 15.9017 5.96126 15.9017C7.09512 16.1851 7.37858 15.6182 7.37858 15.0513Z" fill="white"/>
<path d="M32.3248 18.4524C32.3248 17.0352 30.3406 16.4683 29.4902 17.3186C28.9233 17.8855 28.9232 19.5862 30.624 19.8696C31.7579 19.8696 32.3248 19.3027 32.3248 18.4524Z" fill="white"/>
<path d="M57.2694 22.4214C57.5528 20.7208 55.0016 19.587 53.5843 21.0042C52.4505 21.8546 52.7339 23.8387 54.7182 24.1221C56.419 24.4056 57.2694 23.2718 57.2694 22.4214Z" fill="white"/>
<path d="M81.9299 26.9556C82.2133 24.9715 79.6622 23.5543 77.6779 24.9715C76.2606 26.1053 76.2606 28.3728 78.5283 28.9397C80.796 29.2231 81.9299 27.8059 81.9299 26.9556Z" fill="white"/>
<path d="M106.593 31.7739C107.16 29.5063 104.041 27.8057 101.774 29.2229C99.7895 30.3567 99.7895 33.1911 102.624 34.0415C104.892 34.3249 106.309 32.9077 106.593 31.7739Z" fill="white"/>
<path d="M130.972 36.8762C131.822 34.3252 128.42 32.341 125.586 34.0417C123.318 35.1755 123.035 38.5768 126.436 39.4272C128.987 39.9941 130.688 38.2934 130.972 36.8762Z" fill="white"/>
<path d="M155.065 42.8283C156.198 39.9939 152.797 37.7263 149.679 39.1435C146.561 40.5608 146.277 44.2455 149.395 45.3793H149.679C152.513 45.9462 154.498 44.2455 155.065 42.8283Z" fill="white"/>
<path d="M178.877 48.7815C180.294 45.6636 176.609 43.396 172.924 44.8132C169.239 46.2305 168.955 50.1987 172.073 51.6159H172.357C176.042 52.4663 178.31 50.4821 178.877 48.7815Z" fill="white"/>
<path d="M202.404 55.5842C204.105 52.4663 200.703 49.6319 196.734 50.7656C192.766 51.8994 191.349 56.4345 194.467 58.1352C194.75 58.1352 195.034 58.4187 195.317 58.4187C198.719 59.269 201.553 57.2849 202.404 55.5842Z" fill="white"/>
<path d="M225.365 62.3867C227.349 58.9853 223.948 55.8674 219.412 57.2847C214.877 58.4184 213.176 63.237 216.578 64.9377C216.861 64.9377 217.144 65.2211 217.428 65.2211C221.396 66.3549 224.515 64.3708 225.365 62.3867Z" fill="white"/>
<path d="M248.042 69.7561C250.309 66.0713 246.908 62.9534 242.089 64.0872C236.987 65.221 235.002 70.323 238.404 72.3071C238.687 72.5906 238.971 72.5906 239.254 72.5906C243.506 74.0078 246.908 71.7402 248.042 69.7561Z" fill="white"/>
<path d="M270.151 77.6925C272.703 74.2912 269.585 70.6064 264.766 71.4567C259.38 72.3071 256.262 77.4091 259.38 79.9601C259.947 80.2435 260.23 80.527 260.797 80.8104C264.766 81.9442 268.734 79.6766 270.151 77.6925Z" fill="white"/>
<path d="M291.696 85.9127C294.531 82.228 291.696 78.5432 286.31 79.3935C280.641 80.2438 276.956 85.3458 280.074 88.1803C280.641 88.4637 280.924 88.7472 281.491 89.0306C285.743 90.1644 289.995 87.8969 291.696 85.9127Z" fill="white"/>
<path d="M312.389 94.4158C315.507 91.0144 313.239 87.0462 308.137 87.3296C301.9 87.6131 297.081 93.282 300.483 96.3999C301.05 96.6833 301.333 96.9668 301.9 97.2502C306.152 98.6675 310.688 96.3999 312.389 94.4158Z" fill="white"/>
<path d="M332.798 103.486C336.2 99.801 334.216 95.8328 328.83 96.1162C322.31 96.1162 316.924 102.069 320.042 105.186C320.609 105.753 320.893 106.037 321.46 106.037C325.712 107.737 330.531 105.47 332.798 103.486Z" fill="white"/>
<path d="M352.357 112.557C356.042 109.155 354.058 104.904 348.672 104.904C342.152 104.904 336.199 110.573 339.034 113.974C339.317 114.541 339.884 114.824 340.451 114.824C344.703 116.808 350.089 114.824 352.357 112.557Z" fill="white"/>
<path d="M371.065 122.193C374.75 118.792 373.616 114.824 368.514 114.257C361.71 113.69 354.624 119.642 357.458 123.327C357.742 123.894 358.309 124.178 358.876 124.461C363.128 126.445 368.514 124.461 371.065 122.193Z" fill="white"/>
<path d="M388.924 132.114C392.892 128.712 392.042 124.744 386.939 124.177C380.136 123.327 372.483 129.279 375.034 133.248C375.317 133.815 375.884 134.098 376.168 134.381C380.703 136.366 386.372 134.381 388.924 132.114Z" fill="white"/>
<path d="M406.215 142.318C410.467 139.2 409.9 134.949 404.797 134.098C397.994 133.248 389.774 138.917 392.325 142.885C392.608 143.452 393.175 143.736 393.459 144.019C397.711 146.287 403.38 144.586 406.215 142.318Z" fill="white"/>
<path d="M422.089 152.806C426.624 149.688 426.341 145.72 421.522 144.869C414.719 143.736 405.931 149.971 409.05 153.656C409.333 153.94 409.616 154.223 409.9 154.223C413.585 156.491 419.254 154.79 422.089 152.806Z" fill="white"/>
<path d="M436.829 163.293C441.081 160.459 441.365 156.774 437.396 155.64C431.444 153.94 421.806 159.608 423.507 163.577C423.79 164.144 424.073 164.427 424.357 164.71C428.042 166.695 433.995 164.994 436.829 163.293Z" fill="white"/>
<path d="M450.436 173.78C454.688 171.229 455.538 167.545 451.57 166.411C445.617 164.71 435.412 170.379 437.68 174.064C437.964 174.347 437.964 174.631 438.247 174.631C441.649 176.898 447.318 175.481 450.436 173.78Z" fill="white"/>
<path d="M462.624 184.268C467.16 181.717 468.01 178.315 464.325 177.182C458.939 175.481 448.734 180.866 450.435 184.551C450.435 184.835 450.719 185.118 451.002 185.118C453.837 187.102 459.223 185.968 462.624 184.268Z" fill="white"/>
<path d="M473.679 194.756C477.931 192.488 479.348 189.37 475.946 188.237C470.844 186.536 460.639 191.355 462.057 195.039C462.057 195.323 462.34 195.606 462.623 195.606C465.175 197.307 470.844 196.173 473.679 194.756Z" fill="white"/>
<path d="M483.601 204.96C487.853 202.975 489.27 199.858 486.435 198.724C481.616 197.023 471.128 202.125 473.113 205.243L473.396 205.527C475.097 207.511 480.199 206.66 483.601 204.96Z" fill="white"/>
<path d="M492.389 215.448C496.641 213.463 498.059 210.629 495.508 209.779C491.256 208.078 481.051 212.613 482.468 215.731C482.468 215.731 482.468 216.014 482.752 216.014C484.452 217.715 489.555 216.865 492.389 215.448Z" fill="white"/>
<path d="M499.759 225.935C503.727 224.234 505.428 221.683 503.16 220.549C499.475 218.849 489.554 223.1 490.688 225.935V226.218C492.389 227.635 496.641 227.352 499.759 225.935Z" fill="white"/>
<path d="M506.278 236.139C509.963 234.721 511.664 232.17 509.679 231.32C506.278 229.619 497.207 233.304 497.774 235.855V236.139C499.191 237.839 503.16 237.272 506.278 236.139Z" fill="white"/>
<path d="M511.381 246.343C514.782 244.925 516.767 242.941 515.066 242.091C512.231 240.674 503.444 243.792 504.011 246.059V246.343C504.861 247.76 508.546 247.476 511.381 246.343Z" fill="white"/>
<path d="M515.633 256.547C519.034 255.413 520.735 253.429 519.318 252.579C517.05 251.161 508.263 253.712 508.829 256.263C509.68 257.681 512.798 257.397 515.633 256.547Z" fill="white"/>
<path d="M518.467 266.468C521.585 265.334 523.286 263.633 521.869 263.066C519.601 262.216 512.514 264.2 512.514 266.468C513.081 267.601 516.199 267.318 518.467 266.468Z" fill="white"/>
<path d="M520.451 276.671C523.286 275.821 524.986 274.12 523.853 273.553C522.152 272.703 515.349 274.404 515.349 276.388C515.632 277.238 518.183 277.238 520.451 276.671Z" fill="white"/>
<path d="M521.018 286.309C523.569 285.742 525.27 284.324 524.136 283.758C522.718 282.907 517.049 284.608 516.766 286.025C517.049 286.875 519.317 286.875 521.018 286.309Z" fill="white"/>
<path d="M520.735 295.946C523.003 295.379 524.42 294.245 523.57 293.678C522.436 293.112 517.334 294.245 517.05 295.663C517.05 296.513 519.318 296.229 520.735 295.946Z" fill="white"/>
<path d="M519.035 305.3C521.019 304.733 522.153 303.882 521.586 303.599C520.735 303.032 516.483 303.882 516.2 305.016C516.2 305.866 517.901 305.583 519.035 305.3Z" fill="white"/>
<path d="M516.483 314.653C517.9 314.369 519.034 313.802 518.467 313.235C517.9 312.669 514.499 313.519 514.215 314.369C514.215 314.936 515.349 314.936 516.483 314.653Z" fill="white"/>
<path d="M512.798 323.723C513.932 323.44 514.783 322.873 514.499 322.873C513.932 322.59 511.664 323.157 511.381 323.723C511.097 324.007 512.231 324.007 512.798 323.723Z" fill="white"/>
<path d="M507.979 332.793C508.546 332.793 509.396 332.226 509.113 332.226C508.829 331.943 507.412 332.226 507.128 332.793C506.845 332.793 507.412 332.793 507.979 332.793Z" fill="white"/>
<path d="M502.593 341.013H502.31L501.459 341.297H502.026L502.593 341.013Z" fill="white"/>
<path d="M62.656 0.31178C62.9394 -2.23923 59.8213 -3.65644 57.8371 -1.95577C56.1363 -0.538543 56.4197 2.01246 59.2544 2.86279C61.2386 2.86279 62.3725 1.44556 62.656 0.31178Z" fill="white"/>
<path d="M88.7347 4.84735C89.0181 2.0129 85.6166 0.312225 83.0654 2.0129C80.7977 3.43012 81.3646 6.83147 84.4827 7.39837C87.0339 7.96526 88.4512 6.26458 88.7347 4.84735Z" fill="white"/>
<path d="M114.529 9.94937C115.096 6.83147 111.128 4.84736 108.293 6.54803C105.742 8.2487 106.025 11.9335 109.427 12.7838C112.545 13.3507 114.246 11.65 114.529 9.94937Z" fill="white"/>
<path d="M140.324 15.6184C141.174 11.9336 136.639 9.66601 133.237 11.6501C130.403 13.3508 130.403 17.6025 134.371 18.7363C137.773 19.5866 139.757 17.319 140.324 15.6184Z" fill="white"/>
<path d="M165.836 21.5707C166.97 17.8859 162.718 15.0515 158.75 17.0356C154.781 19.0197 154.781 23.8383 158.466 24.9721C158.466 24.9721 158.75 24.9721 159.033 24.9721C162.718 25.8224 165.27 23.5548 165.836 21.5707Z" fill="white"/>
<path d="M190.782 28.0896C192.2 24.1214 187.664 20.72 183.129 22.9876C178.877 24.9717 178.31 30.0737 182.562 31.7744C182.845 31.7744 182.845 31.7744 183.129 32.0579C187.097 32.6248 189.932 30.0737 190.782 28.0896Z" fill="white"/>
<path d="M215.443 35.1758C217.427 30.9241 212.609 27.2393 207.506 29.2234C202.687 31.2076 201.837 36.8765 206.372 38.8606C206.656 38.8606 206.656 38.8606 206.939 39.144C211.191 39.9944 214.593 37.4434 215.443 35.1758Z" fill="white"/>
<path d="M239.821 42.5461C242.089 38.011 237.553 34.3262 232.167 35.7434C226.498 37.4441 224.797 43.3964 229.049 45.9474C229.333 46.2309 229.9 46.2309 230.183 46.5143C235.002 47.6481 238.687 44.8137 239.821 42.5461Z" fill="white"/>
<path d="M263.633 50.1982C266.184 45.3797 261.649 41.128 255.979 42.8287C249.743 44.8128 247.475 51.0486 252.011 53.883C252.294 54.1665 252.861 54.1665 253.145 54.4499C257.963 55.8672 262.215 52.7493 263.633 50.1982Z" fill="white"/>
<path d="M286.875 58.4182C289.993 53.5997 285.458 48.7811 278.938 50.4818C272.418 52.1824 269.584 58.9851 274.403 61.8196C274.686 62.103 275.253 62.3865 275.536 62.3865C280.639 64.0871 285.174 61.2527 286.875 58.4182Z" fill="white"/>
<path d="M309.555 67.205C312.956 62.3865 308.988 57.5679 302.468 58.4182C295.098 59.552 291.129 67.205 295.948 70.6064C296.232 70.8898 296.799 71.1733 297.082 71.1733C302.751 73.1574 307.57 70.0395 309.555 67.205Z" fill="white"/>
<path d="M331.664 76.275C335.349 71.173 331.38 66.071 324.861 66.9213C316.924 68.0551 312.388 75.9916 317.49 79.3929C317.774 79.6764 318.341 79.9598 318.908 79.9598C324.01 82.2274 329.396 79.1095 331.664 76.275Z" fill="white"/>
<path d="M352.923 85.6293C357.175 80.5273 353.49 75.1418 346.404 75.9922C338.183 76.8425 333.081 85.0624 337.9 89.0306C338.183 89.3141 338.75 89.5975 339.317 89.881C344.703 91.8651 350.656 88.4637 352.923 85.6293Z" fill="white"/>
<path d="M373.615 95.5498C378.151 90.1643 374.749 84.4954 367.379 85.3457C358.875 86.1961 352.922 94.416 357.741 98.6677C358.025 98.9511 358.592 99.2345 359.159 99.518C364.828 101.502 371.064 98.3842 373.615 95.5498Z" fill="white"/>
<path d="M393.459 105.754C398.278 100.935 395.443 94.9831 388.64 94.9831C379.852 94.9831 372.199 103.77 377.301 108.305C377.585 108.588 378.152 108.872 378.435 109.155C383.821 111.706 390.624 108.588 393.459 105.754Z" fill="white"/>
<path d="M412.168 116.241C417.27 111.422 415.002 105.186 407.916 105.186C399.128 105.186 390.624 113.973 395.443 118.508C395.727 118.792 396.294 119.075 396.577 119.359C402.246 122.193 409.333 119.075 412.168 116.241Z" fill="white"/>
<path d="M430.31 127.012C435.695 122.193 433.711 116.241 426.908 115.958C418.121 115.674 409.333 124.461 413.869 128.996C414.152 129.28 414.719 129.563 415.002 129.846C420.105 132.681 426.908 129.846 430.31 127.012Z" fill="white"/>
<path d="M447.035 137.783C452.704 132.964 451.287 127.012 444.484 126.729C435.98 126.162 426.625 134.665 430.594 139.484C430.877 139.767 431.444 140.05 431.728 140.334C436.547 143.452 443.633 140.617 447.035 137.783Z" fill="white"/>
<path d="M462.341 148.838C467.726 144.586 467.443 139.2 461.49 138.067C453.27 136.933 442.782 145.436 446.467 150.255C446.75 150.538 447.033 150.822 447.317 151.105C451.852 154.223 458.939 151.672 462.341 148.838Z" fill="white"/>
<path d="M476.23 159.892C481.616 155.924 481.616 150.538 476.23 149.688C468.576 148.271 458.088 156.491 460.923 161.026C461.206 161.309 461.49 161.593 461.773 161.876C466.025 164.71 472.828 162.443 476.23 159.892Z" fill="white"/>
<path d="M489.271 170.663C494.656 166.978 495.223 161.876 490.121 161.026C482.751 159.608 471.696 167.828 475.097 172.08L475.381 172.363C479.066 175.481 485.585 173.214 489.271 170.663Z" fill="white"/>
<path d="M500.608 181.717C505.994 178.316 506.845 173.497 502.026 172.647C495.223 171.23 484.167 178.883 487.286 183.135L487.569 183.418C490.971 185.969 497.207 183.985 500.608 181.717Z" fill="white"/>
<path d="M510.814 192.772C515.917 189.654 517.051 185.119 513.082 184.268C506.846 182.851 496.074 189.937 498.626 193.906L498.909 194.189C501.744 196.457 507.696 194.756 510.814 192.772Z" fill="white"/>
<path d="M519.885 203.543C524.704 200.708 526.122 196.457 522.437 195.606C516.767 194.189 506.563 200.708 508.263 204.393L508.547 204.677C510.815 206.944 516.2 205.81 519.885 203.543Z" fill="white"/>
<path d="M527.822 214.596C532.64 212.045 534.058 208.077 530.94 207.227C526.404 205.81 515.633 211.762 517.617 215.447C519.318 217.714 524.703 216.014 527.822 214.596Z" fill="white"/>
<path d="M534.342 225.368C538.877 223.1 540.578 219.415 537.743 218.565C533.775 217.431 523.286 222.533 524.987 225.935C526.404 227.919 530.94 227.068 534.342 225.368Z" fill="white"/>
<path d="M540.011 236.138C544.263 234.154 546.247 230.753 543.696 229.903C540.295 228.769 530.373 233.304 531.507 236.422C532.358 238.406 536.61 237.556 540.011 236.138Z" fill="white"/>
<path d="M543.979 246.626C547.948 244.642 549.932 241.807 547.664 241.24C544.546 240.107 535.759 244.075 536.326 247.193C537.459 248.61 541.144 248.043 543.979 246.626Z" fill="white"/>
<path d="M547.097 257.113C550.782 255.413 552.483 253.145 550.782 252.295C548.231 251.161 540.01 254.846 540.577 257.397C541.144 259.097 544.829 258.247 547.097 257.113Z" fill="white"/>
<path d="M549.081 267.601C552.483 266.183 554.183 263.916 552.766 263.349C550.782 262.499 543.128 265.333 543.412 267.884C543.695 269.301 546.813 268.451 549.081 267.601Z" fill="white"/>
<path d="M549.649 278.089C552.767 276.955 554.468 274.971 553.334 274.404C551.633 273.554 544.83 276.105 544.546 278.372C544.83 279.223 547.381 278.939 549.649 278.089Z" fill="white"/>
<path d="M549.364 288.009C551.915 287.159 553.616 285.458 552.766 284.892C551.348 284.041 545.679 286.309 545.112 288.009C545.112 289.143 547.663 288.576 549.364 288.009Z" fill="white"/>
<path d="M547.664 297.93C549.931 297.08 551.632 295.663 550.498 295.379C549.364 294.812 544.545 296.513 543.979 297.93C544.262 298.78 546.246 298.497 547.664 297.93Z" fill="white"/>
<path d="M544.829 307.85C546.813 307.284 548.23 306.15 547.38 305.866C546.53 305.299 542.561 306.717 541.994 307.85C541.994 308.417 543.411 308.134 544.829 307.85Z" fill="white"/>
<path d="M540.86 317.204C542.278 316.637 543.695 315.787 543.128 315.503C542.561 315.22 539.443 316.353 538.876 317.204C538.593 317.771 540.01 317.771 540.86 317.204Z" fill="white"/>
<path d="M535.76 326.557C536.893 326.274 537.744 325.424 537.46 325.424C536.893 325.14 534.626 325.991 534.342 326.557C534.342 327.124 535.193 326.841 535.76 326.557Z" fill="white"/>
<path d="M529.805 335.628C530.655 335.344 531.222 335.061 530.939 334.777C530.655 334.494 529.238 335.061 528.955 335.344C528.671 335.911 529.238 335.911 529.805 335.628C529.521 335.628 529.521 335.628 529.805 335.628Z" fill="white"/>
<path d="M523.003 344.131H522.436L521.869 344.415L522.153 344.698L523.003 344.131Z" fill="white"/>
<path d="M175.758 -1.38856C176.892 -5.92369 171.506 -9.32504 167.254 -6.49059C163.285 -4.22303 163.285 1.16245 168.388 2.86312C172.356 3.71345 174.907 0.879 175.758 -1.38856Z" fill="white"/>
<path d="M201.836 5.41447C203.254 0.595901 198.151 -2.80544 193.333 -0.537877C188.514 1.72969 188.23 7.96548 193.049 9.66615C193.333 9.66615 193.333 9.66615 193.616 9.94959C197.868 10.7999 200.986 7.96548 201.836 5.41447Z" fill="white"/>
<path d="M227.632 12.7838C229.617 7.68174 223.947 3.7135 218.561 5.98107C213.176 8.53207 212.609 15.0513 217.711 17.0354C217.995 17.0354 218.278 17.3189 218.278 17.3189C223.097 18.4527 226.782 15.3348 227.632 12.7838Z" fill="white"/>
<path d="M253.143 20.437C255.411 15.0515 249.742 10.5164 243.789 13.0674C237.836 15.6184 236.986 22.7046 242.088 24.9722C242.372 24.9722 242.655 25.2556 242.655 25.2556C247.757 26.6728 252.009 23.2715 253.143 20.437Z" fill="white"/>
<path d="M277.805 28.6567C280.64 22.7043 274.687 17.8857 268.167 20.4367C261.648 22.9877 260.23 30.6408 265.9 33.1918C266.183 33.1918 266.467 33.4752 266.467 33.4752C272.136 35.1759 276.671 31.4911 277.805 28.6567Z" fill="white"/>
<path d="M302.467 37.1599C305.585 31.2075 300.199 26.1055 293.396 28.0897C285.742 30.3572 283.474 38.8606 289.427 41.9785C289.711 41.9785 289.994 42.2619 290.278 42.2619C295.663 43.9626 300.766 40.2778 302.467 37.1599Z" fill="white"/>
<path d="M326.278 46.2305C329.963 39.9947 324.577 34.3257 316.923 36.3099C308.703 38.5774 305.868 47.6477 312.104 51.049C312.388 51.049 312.671 51.3325 312.955 51.3325C318.908 53.3166 324.293 49.6318 326.278 46.2305Z" fill="white"/>
<path d="M349.239 55.8673C353.207 49.6315 347.821 43.1123 339.884 45.0964C331.38 47.364 327.695 56.7177 333.931 60.4025C334.215 60.4025 334.498 60.6859 334.782 60.6859C341.302 63.2369 346.971 59.2687 349.239 55.8673Z" fill="white"/>
<path d="M371.633 65.7881C375.885 59.5523 371.349 53.033 363.412 54.1668C354.341 55.584 348.955 65.5046 354.908 70.0397C355.192 70.3232 356.042 70.6066 356.326 70.8901C362.845 73.1577 369.365 69.4729 371.633 65.7881Z" fill="white"/>
<path d="M393.458 75.9927C398.277 69.4734 393.741 62.3873 385.521 63.5211C375.883 64.6549 369.93 75.1423 375.599 79.9609C375.883 80.2443 376.733 80.5278 377.017 80.8112C383.82 83.9291 390.623 79.6775 393.458 75.9927Z" fill="white"/>
<path d="M414.151 86.763C419.537 79.9603 415.285 72.5908 406.781 73.4411C396.86 74.5749 389.773 85.0624 395.726 90.4478C396.01 90.7313 396.86 91.2982 397.143 91.5816C403.947 94.6995 411.033 90.7313 414.151 86.763Z" fill="white"/>
<path d="M434.278 97.8172C440.23 90.7311 436.262 83.0781 427.191 83.9284C416.419 85.0622 408.482 96.9669 415.285 102.069C415.569 102.352 415.852 102.352 416.136 102.636C422.939 105.754 430.876 101.785 434.278 97.8172Z" fill="white"/>
<path d="M452.987 109.439C459.223 102.636 455.538 94.416 446.751 94.9829C435.696 95.8333 427.475 107.738 433.995 113.123C434.278 113.407 434.562 113.407 434.845 113.69C441.365 117.092 449.585 113.123 452.987 109.439Z" fill="white"/>
<path d="M470.278 120.777C476.514 114.541 474.246 106.888 466.309 106.604C456.104 106.321 446.183 117.659 451.002 123.611C451.286 123.894 451.852 124.461 452.419 124.745C458.656 128.146 466.593 124.461 470.278 120.777Z" fill="white"/>
<path d="M486.151 132.114C492.387 126.162 490.687 119.076 483.317 118.509C473.395 118.225 462.907 129.847 468.576 135.232C468.86 135.516 469.143 135.516 469.143 135.799C474.529 139.2 482.466 135.516 486.151 132.114Z" fill="white"/>
<path d="M500.609 143.452C506.561 138.066 505.711 130.98 498.908 130.697C489.837 130.13 479.349 140.901 484.168 146.286C484.451 146.57 484.451 146.57 484.735 146.853C489.553 149.971 496.924 146.853 500.609 143.452Z" fill="white"/>
<path d="M513.648 154.79C519.601 149.688 519.317 143.168 513.081 142.885C504.861 142.318 494.372 152.522 498.341 157.341C498.341 157.624 498.624 157.624 498.908 157.908C503.16 160.742 510.246 157.908 513.648 154.79Z" fill="white"/>
<path d="M525.553 166.127C531.222 161.592 531.506 155.357 525.837 155.073C518.183 154.506 507.978 163.86 511.38 168.395C511.38 168.679 511.663 168.679 511.663 168.962C515.065 171.513 521.585 169.529 525.553 166.127Z" fill="white"/>
<path d="M536.326 177.749C541.995 173.497 542.562 167.828 537.176 167.261C530.373 166.694 519.885 175.198 523.287 180.016C526.688 182.567 532.924 180.3 536.326 177.749Z" fill="white"/>
<path d="M545.68 189.086C551.066 185.118 551.917 180.016 547.381 179.449C541.428 178.882 531.224 186.535 534.058 191.07C536.326 193.338 541.995 191.637 545.68 189.086Z" fill="white"/>
<path d="M553.9 200.425C559.003 196.74 560.137 191.922 556.168 191.638C550.782 191.071 540.861 198.157 543.129 202.126C545.113 204.393 550.782 202.409 553.9 200.425Z" fill="white"/>
<path d="M560.703 211.478C565.522 208.36 566.94 203.825 563.255 203.258C558.436 202.691 549.081 208.927 551.066 212.896C552.766 215.447 557.585 213.462 560.703 211.478Z" fill="white"/>
<path d="M566.373 222.817C570.908 219.982 572.609 216.014 569.491 215.447C565.523 214.88 556.452 220.549 557.869 223.951C558.719 225.935 562.971 224.801 566.373 222.817Z" fill="white"/>
<path d="M570.626 233.871C574.878 231.32 576.578 227.636 573.744 227.069C570.059 226.502 561.838 231.604 562.689 234.722C563.823 236.706 567.791 235.856 570.626 233.871Z" fill="white"/>
<path d="M574.025 244.925C577.994 242.658 579.695 239.54 577.427 238.973C574.309 238.406 566.939 242.941 567.222 245.776C567.789 247.476 571.474 246.343 574.025 244.925Z" fill="white"/>
<path d="M576.01 255.696C579.412 253.712 581.396 250.878 579.412 250.311C576.861 249.744 569.774 253.712 570.058 256.263C570.341 257.964 573.176 257.397 576.01 255.696Z" fill="white"/>
<path d="M576.578 266.467C579.697 264.766 581.681 262.215 579.98 261.932C577.996 261.365 571.76 264.766 571.476 267.034C571.76 268.451 574.594 267.601 576.578 266.467Z" fill="white"/>
<path d="M576.009 277.238C578.844 275.821 580.545 273.553 579.411 273.27C577.71 272.703 572.041 275.821 571.757 277.805C571.757 278.939 574.309 278.089 576.009 277.238Z" fill="white"/>
<path d="M574.31 287.442C576.577 286.308 578.278 284.324 577.428 284.041C576.294 283.474 571.475 286.025 570.908 287.725C570.908 288.859 572.609 288.292 574.31 287.442Z" fill="white"/>
<path d="M571.476 297.646C573.461 296.512 575.161 295.095 574.311 294.812C573.461 294.528 569.209 296.512 568.642 297.93C568.358 298.78 570.342 298.213 571.476 297.646Z" fill="white"/>
<path d="M567.508 307.567C569.209 306.717 570.626 305.583 570.059 305.3C569.492 305.016 566.091 306.433 565.524 307.567C564.957 308.701 566.374 308.134 567.508 307.567Z" fill="white"/>
<path d="M562.122 317.488C563.539 316.921 564.389 316.071 564.106 315.787C563.539 315.504 560.988 316.921 560.421 317.488C560.138 318.055 561.271 317.772 561.271 317.488C561.555 317.772 561.838 317.488 562.122 317.488Z" fill="white"/>
<path d="M555.6 326.841C556.451 326.274 557.301 325.707 557.018 325.707C556.734 325.707 555.034 326.274 554.467 326.841C554.467 326.841 554.183 327.125 554.75 327.125C555.034 327.125 555.317 327.125 555.6 326.841Z" fill="white"/>
<path d="M547.948 336.195C548.515 335.912 549.082 335.628 548.798 335.628C548.515 335.628 547.665 335.912 547.381 336.479C547.381 336.479 547.665 336.195 547.948 336.195Z" fill="white"/>
<path d="M539.159 344.983L538.876 345.265V344.983H539.159Z" fill="white"/>
<path d="M265.334 -3.37315C267.318 -9.04205 261.365 -13.8606 255.412 -11.0262C249.743 -8.47518 248.326 -0.538705 254.846 1.72886C260.231 2.86264 264.2 -0.538692 265.334 -3.37315Z" fill="white"/>
<path d="M291.128 4.84691C293.679 -1.38889 287.443 -6.4909 280.924 -3.65645C274.687 -0.821995 272.987 7.39793 279.79 9.94894C285.459 11.6496 289.711 7.96481 291.128 4.84691Z" fill="white"/>
<path d="M316.357 13.9175C319.191 7.39827 312.955 1.72935 306.152 4.84725C299.349 7.6817 297.365 16.4685 304.451 19.303C310.12 21.0037 314.939 17.3189 316.357 13.9175Z" fill="white"/>
<path d="M341.019 23.2707C344.137 16.7515 338.751 10.7991 331.381 13.0667C323.444 15.3343 320.893 24.9714 327.412 28.3728C327.696 28.3728 327.979 28.6562 328.263 28.6562C334.216 30.6403 339.318 26.6721 341.019 23.2707Z" fill="white"/>
<path d="M365.113 33.1917C368.798 26.389 363.129 20.1532 355.475 22.1373C346.971 24.4049 343.853 34.6089 350.656 38.2937C350.94 38.2937 351.223 38.5771 351.507 38.5771C357.46 40.8447 363.129 36.8765 365.113 33.1917Z" fill="white"/>
<path d="M388.073 43.3958C392.325 36.3096 386.655 29.5069 378.718 31.7745C369.931 34.042 366.246 44.5295 372.766 48.4978C373.049 48.4978 373.333 48.7812 373.616 48.7812C380.136 51.3322 386.088 47.0805 388.073 43.3958Z" fill="white"/>
<path d="M410.75 54.1664C415.286 47.0803 409.9 39.7107 401.396 41.6948C392.325 43.9624 388.073 54.7333 394.593 58.985C394.876 59.2685 395.16 59.2685 395.443 59.5519C401.963 62.1029 408.199 58.1347 410.75 54.1664Z" fill="white"/>
<path d="M432.294 65.2208C437.396 57.8513 432.01 50.1982 423.223 52.1823C413.585 54.4499 408.766 65.5043 415.286 70.0394C415.569 70.3228 415.853 70.3229 416.136 70.6063C422.939 73.4408 429.459 69.1891 432.294 65.2208Z" fill="white"/>
<path d="M452.703 76.8427C457.805 69.7565 453.837 62.1035 445.333 62.9538C435.412 64.0876 428.892 76.2758 435.412 81.3778C435.695 81.6612 435.979 81.6612 436.262 81.9447C442.782 85.0626 449.868 80.8109 452.703 76.8427Z" fill="white"/>
<path d="M472.262 88.4636C477.648 81.3775 473.963 73.441 465.742 74.2914C455.821 75.4251 448.734 87.6133 454.971 92.7153C455.254 92.9988 455.537 92.9988 455.821 93.2822C462.057 96.6836 469.427 92.4319 472.262 88.4636Z" fill="white"/>
<path d="M490.404 100.369C496.073 93.5659 492.955 85.9129 485.018 86.4798C475.38 87.3301 467.727 99.2348 473.679 104.337C473.963 104.62 474.246 104.62 474.246 104.904C480.199 108.305 487.286 104.337 490.404 100.369Z" fill="white"/>
<path d="M507.128 112.273C512.798 105.754 510.53 98.1011 502.876 98.668C493.806 99.5184 485.869 110.856 490.971 115.958C491.254 116.242 491.538 116.242 491.538 116.525C496.924 119.643 503.727 115.958 507.128 112.273Z" fill="white"/>
<path d="M522.151 124.178C527.82 117.942 526.119 110.856 519.033 111.14C510.812 111.707 501.741 122.761 507.694 127.863C512.23 131.264 519.033 127.58 522.151 124.178Z" fill="white"/>
<path d="M536.043 136.082C541.712 130.413 540.295 123.327 533.775 123.894C526.121 124.461 517.334 134.665 522.153 139.767C526.405 142.602 532.641 139.2 536.043 136.082Z" fill="white"/>
<path d="M548.514 147.987C553.617 142.885 553.617 136.65 547.947 136.366C540.861 136.083 531.223 146.003 535.475 151.105C539.16 153.94 545.113 150.822 548.514 147.987Z" fill="white"/>
<path d="M559.57 159.609C564.672 154.79 564.956 149.121 559.854 148.838C553.617 148.554 543.98 157.625 547.665 162.443C550.783 165.278 556.452 162.443 559.57 159.609Z" fill="white"/>
<path d="M569.206 171.513C574.025 166.978 574.592 161.592 570.34 161.309C564.671 160.742 555.316 169.529 558.434 174.064C560.985 176.898 566.371 174.347 569.206 171.513Z" fill="white"/>
<path d="M577.711 183.418C582.246 179.449 583.097 174.347 579.412 174.064C574.309 173.497 565.522 181.433 567.79 185.685C570.057 188.236 574.876 185.685 577.711 183.418Z" fill="white"/>
<path d="M585.082 195.038C589.618 191.354 590.751 186.819 587.066 186.535C582.531 185.968 574.311 193.338 576.011 197.023C577.712 199.29 582.248 197.306 585.082 195.038Z" fill="white"/>
<path d="M590.752 206.661C595.004 203.259 596.138 199.291 593.303 198.724C589.335 198.157 581.398 204.677 582.815 208.361C584.232 210.629 588.201 208.928 590.752 206.661Z" fill="white"/>
<path d="M579.695 314.936C580.262 314.653 581.113 313.803 581.113 313.803C580.829 313.803 579.412 314.653 579.128 315.22C579.128 315.503 579.412 315.22 579.695 314.936Z" fill="white"/>
<path d="M572.61 324.007L572.043 324.29L571.476 324.857L571.76 324.573L572.61 324.007Z" fill="white"/>
<path d="M354.057 -1.67211C356.608 -7.90791 350.939 -13.5768 344.419 -10.7424C338.183 -8.19137 336.199 0.311997 342.718 3.4299C348.388 5.13057 352.923 1.44579 354.057 -1.67211Z" fill="white"/>
<path d="M379.003 8.24859C382.121 1.72935 376.168 -4.22301 369.365 -1.38856C362.845 1.4459 360.294 10.2327 367.097 13.3506C372.766 15.6182 377.302 11.6499 379.003 8.24859Z" fill="white"/>
<path d="M402.814 19.0196C405.932 12.5003 401.113 6.54798 394.026 8.53209C386.373 10.7997 383.822 20.4368 389.775 23.8382C390.058 23.8382 390.341 24.1216 390.341 24.1216C396.011 26.3892 401.113 22.4209 402.814 19.0196Z" fill="white"/>
<path d="M426.058 30.0738C429.743 23.5545 424.641 17.0353 417.554 19.0194C409.901 21.287 406.499 30.9241 412.452 34.8924C412.735 34.8924 413.019 35.1758 413.019 35.1758C418.688 37.4434 424.074 33.4751 426.058 30.0738Z" fill="white"/>
<path d="M448.167 41.4123C452.136 34.6096 447.317 28.0903 440.23 29.791C432.577 31.7751 428.325 41.9792 435.128 46.2308C440.514 48.7818 446.183 44.8136 448.167 41.4123Z" fill="white"/>
<path d="M469.428 53.0332C473.68 46.2305 469.145 39.4278 461.775 41.1285C454.121 43.1126 449.302 53.3166 456.105 57.8518C461.491 60.4028 467.16 56.718 469.428 53.0332Z" fill="white"/>
<path d="M489.554 65.2212C493.806 58.4185 489.838 51.6158 482.751 53.033C475.097 54.7337 469.995 65.2212 476.231 69.7563C481.617 72.5908 487.286 68.906 489.554 65.2212Z" fill="white"/>
<path d="M508.546 77.4094C513.081 70.8901 509.68 64.0874 502.593 65.5046C495.223 67.2053 489.554 77.1259 495.506 81.661C500.325 84.4955 505.995 81.0941 508.546 77.4094Z" fill="white"/>
<path d="M525.837 89.8811C530.089 83.9287 527.821 77.4095 521.585 77.9764C514.215 78.8267 507.412 89.3142 513.081 94.1328C517.616 96.6838 523.286 93.2824 525.837 89.8811Z" fill="white"/>
<path d="M541.712 102.069C545.964 96.3998 544.263 89.8806 538.31 90.4475C531.507 91.2978 524.42 101.218 529.523 105.754C533.775 108.871 539.16 105.47 541.712 102.069Z" fill="white"/>
<path d="M556.168 114.54C560.703 109.155 559.286 102.919 553.9 103.486C547.381 104.053 540.294 113.69 544.829 118.225C548.231 120.776 553.617 117.658 556.168 114.54Z" fill="white"/>
<path d="M569.206 126.729C573.458 121.627 572.608 115.675 567.789 116.242C561.836 116.809 554.75 125.879 558.718 130.131C561.553 132.682 566.655 129.847 569.206 126.729Z" fill="white"/>
<path d="M580.83 139.2C585.082 134.382 584.515 128.713 579.979 129.28C574.593 129.847 567.79 138.35 570.908 142.318C573.46 144.869 578.278 142.035 580.83 139.2Z" fill="white"/>
<path d="M591.033 151.388C595.285 146.853 595.001 141.751 591.033 142.034C586.214 142.318 579.411 150.254 581.962 154.222C584.23 156.773 588.482 153.939 591.033 151.388Z" fill="white"/>
<path d="M439.948 3.71342C442.499 -1.95549 437.964 -7.34097 432.294 -5.07341C426.625 -2.80584 424.641 5.13064 430.027 8.24854C434.562 9.94922 438.531 6.83132 439.948 3.71342Z" fill="white"/>
<path d="M462.908 15.3347C465.743 9.66579 461.774 4.28032 456.105 5.98099C450.152 7.68167 447.034 16.4685 452.703 19.8698C457.239 21.8539 461.207 18.4526 462.908 15.3347Z" fill="white"/>
<path d="M484.735 27.5228C487.57 21.8539 483.885 16.4685 478.499 17.8857C472.546 19.5864 469.144 28.0897 474.53 31.7745C478.782 33.7586 483.034 30.3573 484.735 27.5228Z" fill="white"/>
<path d="M505.712 39.9945C508.831 34.3256 505.429 28.6567 499.76 30.0739C493.807 31.4912 490.122 40.278 495.508 43.9628C499.76 46.2303 504.012 42.829 505.712 39.9945Z" fill="white"/>
<path d="M524.987 52.4657C528.105 47.0803 525.27 41.4114 519.884 42.5451C514.215 43.9624 510.246 52.4657 515.065 56.1505C519.034 58.7015 523.286 55.5836 524.987 52.4657Z" fill="white"/>
<path d="M543.129 65.2213C546.531 59.8358 543.979 54.4504 538.877 55.5842C533.491 57.0014 529.239 65.2213 533.775 68.9061C537.176 71.1737 541.145 68.0558 543.129 65.2213Z" fill="white"/>
<path d="M559.57 77.9758C562.971 72.8738 560.987 67.4883 555.885 68.6221C550.782 70.0393 546.53 77.9758 550.215 81.3772C553.617 83.6447 557.869 80.8103 559.57 77.9758Z" fill="white"/>
<path d="M574.593 90.7313C577.711 85.9127 576.577 81.0941 572.325 81.661C567.506 82.2279 562.404 90.4478 566.089 94.1326C568.923 96.1167 572.892 93.2823 574.593 90.7313Z" fill="white"/>
<path d="M588.199 103.486C591.317 98.9509 590.467 94.1323 586.498 94.6992C581.963 95.2661 576.86 103.203 579.978 106.604C582.53 108.588 586.215 106.037 588.199 103.486Z" fill="white"/>
<path d="M498.909 0.0288327C500.893 -4.50629 497.775 -8.47453 493.806 -7.0573C489.838 -5.35663 488.137 0.879165 491.822 3.14673C494.94 4.8474 497.775 2.2964 498.909 0.0288327Z" fill="white"/>
<path d="M520.452 12.7833C522.436 8.24815 519.601 3.99647 515.633 5.69714C511.664 7.39781 509.68 13.6336 513.365 16.1846C516.2 17.6018 519.318 15.0508 520.452 12.7833Z" fill="white"/>
<path d="M540.578 25.8222C542.562 21.5706 540.294 17.3189 536.609 18.4527C532.641 19.5864 530.09 26.1057 533.491 28.9401C536.326 30.3574 539.444 28.0898 540.578 25.8222Z" fill="white"/>
<path d="M559.002 38.8603C561.27 34.8921 559.285 30.6404 555.6 31.7742C551.632 32.9079 549.081 39.1438 552.199 41.9782C555.033 43.3954 557.868 40.8444 559.002 38.8603Z" fill="white"/>
<path d="M576.01 51.8997C578.277 47.9315 576.577 43.9632 573.175 44.8136C569.49 45.9473 566.655 52.1831 569.49 54.7342C572.041 56.4348 574.876 53.8838 576.01 51.8997Z" fill="white"/>
<path d="M554.75 -2.80577C555.884 -5.64022 554.467 -8.19123 551.916 -7.34089C549.648 -6.20711 548.514 -2.52233 550.498 -0.821657C552.483 0.0286791 553.9 -1.38854 554.75 -2.80577Z" fill="white"/>
<path d="M573.742 10.2328C574.876 7.68184 573.742 5.13083 571.475 5.69772C569.207 6.54806 567.79 10.5163 569.774 12.217C571.475 13.3508 573.176 11.6501 573.742 10.2328Z" fill="white"/>
</g>
</g>
<defs>
<clipPath id="clip0_81_3216">
<rect width="583" height="347" fill="white" transform="matrix(1 0 0 -1 0 347)"/>
</clipPath>
</defs>
</svg>
