<svg width="423" height="250" viewBox="0 0 423 250" fill="none" xmlns="http://www.w3.org/2000/svg">
<g opacity="0.08">
<path d="M321.186 178.425H321.391L321.186 178.22H320.98L321.186 178.425Z" fill="#2A3143"/>
<path d="M307.2 174.734L307.817 174.529L307.612 174.324L307.2 174.529V174.734Z" fill="#2A3143"/>
<path d="M293.627 170.428C293.421 170.634 293.627 170.839 293.832 170.839C294.244 170.839 294.655 170.428 294.449 170.223C294.449 170.223 294.449 170.223 294.244 170.223C294.038 170.223 293.832 170.223 293.627 170.428Z" fill="#2A3143"/>
<path d="M280.257 166.123C280.051 166.328 280.051 166.533 280.668 166.738C281.286 166.738 281.697 166.328 281.491 166.123C281.491 166.123 281.491 166.123 281.286 166.123C280.874 165.713 280.463 165.918 280.257 166.123Z" fill="#2A3143"/>
<path d="M267.3 161.612C267.094 161.817 267.094 162.227 267.506 162.227C268.123 162.227 268.945 161.817 268.74 161.612C268.74 161.612 268.534 161.612 268.534 161.407C267.917 161.202 267.506 161.407 267.3 161.612Z" fill="#2A3143"/>
<path d="M254.549 156.692C254.137 157.102 254.137 157.307 254.754 157.512C255.371 157.717 256.605 157.102 256.194 156.692C256.194 156.692 255.988 156.692 255.988 156.487C255.371 156.282 254.754 156.692 254.549 156.692Z" fill="#2A3143"/>
<path d="M242.208 151.771C241.797 151.976 241.797 152.386 242.208 152.591C243.031 152.796 244.471 152.181 244.059 151.771C244.059 151.566 243.854 151.566 243.854 151.566C243.237 151.361 242.62 151.566 242.208 151.771Z" fill="#2A3143"/>
<path d="M230.074 146.645C229.457 146.85 229.457 147.26 230.074 147.465C230.896 147.875 232.748 147.26 232.336 146.645L232.131 146.44C231.513 146.235 230.691 146.235 230.074 146.645Z" fill="#2A3143"/>
<path d="M218.557 141.109C217.94 141.314 217.94 141.724 218.352 141.93C219.174 142.34 221.025 141.725 220.82 141.109L220.614 140.904C219.997 140.699 218.969 140.904 218.557 141.109Z" fill="#2A3143"/>
<path d="M207.45 135.574C206.833 135.779 206.628 136.189 207.245 136.394C208.273 136.804 210.124 136.189 209.918 135.574L209.713 135.369C209.096 135.164 208.067 135.369 207.45 135.574Z" fill="#2A3143"/>
<path d="M196.55 129.833C195.933 130.038 195.727 130.448 196.138 130.653C196.961 131.063 199.224 130.448 199.018 130.038L198.812 129.833C198.401 129.423 197.372 129.423 196.55 129.833Z" fill="#2A3143"/>
<path d="M186.472 123.682C185.65 123.887 185.444 124.297 186.061 124.502C187.089 124.912 189.352 124.297 189.146 123.682C189.146 123.682 189.146 123.477 188.94 123.477C188.118 123.477 187.089 123.477 186.472 123.682Z" fill="#2A3143"/>
<path d="M176.805 117.531C175.983 117.736 175.777 118.146 176.188 118.351C177.011 118.761 179.479 118.351 179.273 117.736C179.273 117.736 179.273 117.531 179.068 117.531C178.656 117.326 177.422 117.326 176.805 117.531Z" fill="#2A3143"/>
<path d="M167.756 111.38C166.933 111.585 166.728 111.995 167.139 112.2C167.962 112.61 170.43 112.2 170.224 111.585C170.224 111.585 170.224 111.38 170.018 111.38C169.607 111.175 168.579 111.175 167.756 111.38Z" fill="#2A3143"/>
<path d="M159.735 105.229C158.913 105.434 158.501 105.639 158.913 106.05C159.735 106.46 161.998 106.05 161.998 105.639C161.998 105.639 161.998 105.639 161.998 105.434C161.381 105.024 160.352 105.024 159.735 105.229Z" fill="#2A3143"/>
<path d="M152.125 99.0785C151.303 99.2836 150.891 99.4886 151.303 99.6936C151.92 100.104 154.593 99.6936 154.388 99.2835C153.976 98.8735 152.948 98.8735 152.125 99.0785Z" fill="#2A3143"/>
<path d="M145.544 92.9277C144.721 93.1327 144.31 93.3378 144.721 93.5428C145.338 93.9528 147.6 93.7478 147.6 93.1327C146.983 92.7227 145.955 92.7227 145.544 92.9277Z" fill="#2A3143"/>
<path d="M139.374 86.5718C138.757 86.5718 138.345 86.9819 138.551 86.9819C139.168 87.392 141.225 87.1869 141.225 86.7769C140.814 86.5718 139.991 86.5718 139.374 86.5718Z" fill="#2A3143"/>
<path d="M134.027 80.421C133.409 80.421 132.998 80.6261 133.204 80.8311C133.615 81.2411 135.672 81.0361 135.672 80.626C135.466 80.421 134.644 80.421 134.027 80.421Z" fill="#2A3143"/>
<path d="M129.501 74.2701C128.884 74.2701 128.678 74.4752 128.678 74.6802C129.09 74.8852 130.735 74.8852 130.735 74.6802C130.529 74.2701 129.912 74.2701 129.501 74.2701Z" fill="#2A3143"/>
<path d="M125.388 68.1193C124.977 68.1193 124.771 68.3244 124.771 68.3244C124.977 68.5294 126.417 68.5294 126.417 68.3244C126.417 68.1193 125.8 68.1193 125.388 68.1193Z" fill="#2A3143"/>
<path d="M121.686 62.1734L122.508 62.3785L122.92 62.1734H122.303H121.686Z" fill="#2A3143"/>
<path d="M119.424 56.0226L119.835 56.2276L120.041 56.0226H119.629H119.424Z" fill="#2A3143"/>
<path d="M373.632 203.028H373.838L373.632 202.618L373.426 202.823L373.632 203.028Z" fill="#2A3143"/>
<path d="M357.589 199.747C357.589 200.158 358.001 200.363 358.412 200.158C358.823 199.952 358.618 199.542 358.412 199.542C358.001 199.337 357.795 199.542 357.589 199.747Z" fill="#2A3143"/>
<path d="M342.165 196.467C341.959 196.877 342.576 197.287 343.193 197.082C343.604 196.877 343.81 196.262 343.193 196.057C342.576 195.852 342.165 196.262 342.165 196.467Z" fill="#2A3143"/>
<path d="M326.738 192.776C326.533 193.392 327.15 193.802 327.972 193.597C328.795 193.392 328.795 192.571 328.178 192.366H327.972C327.355 192.161 326.738 192.571 326.738 192.776Z" fill="#2A3143"/>
<path d="M311.519 188.881C311.108 189.496 311.931 190.111 312.959 189.906C313.987 189.701 314.399 188.676 313.576 188.471C313.576 188.471 313.37 188.471 313.37 188.266C312.342 188.061 311.725 188.471 311.519 188.881Z" fill="#2A3143"/>
<path d="M296.506 184.78C296.094 185.6 296.711 186.215 297.74 186.01C298.974 185.805 299.591 184.78 298.768 184.165C298.768 184.165 298.562 183.96 298.357 183.96C297.74 183.755 296.917 184.37 296.506 184.78Z" fill="#2A3143"/>
<path d="M281.903 180.27C281.286 181.09 282.108 181.91 283.342 181.705C284.782 181.5 285.605 180.27 284.782 179.655C284.576 179.655 284.576 179.45 284.371 179.45C283.137 179.245 282.108 179.86 281.903 180.27Z" fill="#2A3143"/>
<path d="M267.506 175.554C266.683 176.374 267.3 177.194 268.74 177.194C270.179 177.194 271.619 175.964 270.796 175.144C270.591 174.939 270.385 174.939 270.385 174.939C268.945 174.529 267.917 175.144 267.506 175.554Z" fill="#2A3143"/>
<path d="M253.315 170.633C252.492 171.453 252.903 172.479 254.343 172.479C256.194 172.479 257.839 171.248 257.017 170.223C256.811 170.018 256.605 170.018 256.605 170.018C255.166 169.608 253.932 170.223 253.315 170.633Z" fill="#2A3143"/>
<path d="M239.535 165.508C238.506 166.328 238.918 167.353 240.563 167.353C242.414 167.353 244.471 166.123 243.648 165.098C243.442 164.893 243.237 164.893 243.237 164.688C241.797 164.483 240.152 164.893 239.535 165.508Z" fill="#2A3143"/>
<path d="M226.166 160.177C225.138 160.997 225.343 162.022 226.783 162.227C228.84 162.432 231.308 160.997 230.485 159.972C230.279 159.767 230.074 159.767 230.074 159.562C228.634 158.947 226.989 159.562 226.166 160.177Z" fill="#2A3143"/>
<path d="M213.209 154.436C211.975 155.256 212.181 156.281 213.621 156.486C215.677 156.896 218.351 155.256 217.734 154.231C217.529 154.026 217.323 154.026 217.323 153.821C215.883 153.411 214.032 153.821 213.209 154.436Z" fill="#2A3143"/>
<path d="M200.663 148.695C199.429 149.516 199.429 150.541 200.663 150.746C202.72 151.361 206.01 149.721 205.393 148.49C205.188 148.285 205.188 148.08 204.982 148.08C203.542 147.465 201.691 148.08 200.663 148.695Z" fill="#2A3143"/>
<path d="M188.734 142.545C187.294 143.365 187.294 144.39 188.528 144.8C190.585 145.415 194.287 143.98 193.67 142.75C193.67 142.545 193.464 142.34 193.259 142.34C191.819 141.52 189.762 141.93 188.734 142.545Z" fill="#2A3143"/>
<path d="M177.217 136.189C175.777 137.009 175.571 137.829 176.805 138.239C179.068 138.854 182.975 137.419 182.153 136.189C182.153 135.984 181.947 135.984 181.741 135.779C180.302 135.164 178.245 135.779 177.217 136.189Z" fill="#2A3143"/>
<path d="M166.111 129.628C164.465 130.243 164.26 131.268 165.494 131.883C167.756 132.703 171.869 131.063 171.047 129.833C171.047 129.628 170.841 129.628 170.635 129.423C169.401 128.808 167.139 129.218 166.111 129.628Z" fill="#2A3143"/>
<path d="M155.622 123.067C153.976 123.682 153.565 124.707 154.799 125.117C156.856 125.937 161.175 124.502 160.558 123.272C160.558 123.067 160.352 123.067 160.146 122.862C159.118 122.247 156.856 122.657 155.622 123.067Z" fill="#2A3143"/>
<path d="M146.161 116.506C144.516 117.121 144.104 117.941 144.927 118.351C146.572 119.376 151.508 117.941 150.891 116.711C150.891 116.506 150.686 116.506 150.686 116.301C149.657 115.686 147.395 115.891 146.161 116.506Z" fill="#2A3143"/>
<path d="M137.317 109.74C135.672 110.355 135.055 111.175 136.083 111.585C137.728 112.611 142.459 111.38 142.253 110.15C142.253 109.945 142.047 109.945 142.047 109.74C140.813 109.125 138.551 109.33 137.317 109.74Z" fill="#2A3143"/>
<path d="M129.296 102.974C127.651 103.384 127.034 104.204 127.856 104.614C129.296 105.64 134.027 104.614 133.821 103.384C133.821 103.179 133.615 103.179 133.615 103.179C132.793 102.564 130.53 102.769 129.296 102.974Z" fill="#2A3143"/>
<path d="M122.097 96.4134C120.452 96.8234 119.835 97.4385 120.452 98.0536C121.892 98.8737 126.622 97.8486 126.416 96.8234C126.416 96.8234 126.416 96.6184 126.211 96.6184C125.388 95.7983 123.331 96.0033 122.097 96.4134Z" fill="#2A3143"/>
<path d="M115.722 89.6473C114.076 90.0574 113.459 90.6725 114.282 91.0825C115.722 91.9027 120.041 90.8775 119.835 90.0574V89.8524C118.807 89.2373 116.75 89.4423 115.722 89.6473Z" fill="#2A3143"/>
<path d="M109.962 82.8816C108.317 83.2916 107.7 83.9067 108.317 84.3168C109.551 85.1369 113.665 84.3168 113.665 83.2916V83.0866C113.048 82.6765 111.197 82.6765 109.962 82.8816Z" fill="#2A3143"/>
<path d="M105.027 76.3204C103.587 76.5255 102.765 77.1406 103.382 77.5506C104.616 78.3707 108.729 77.5506 108.318 76.7305C107.907 76.1154 106.056 76.1154 105.027 76.3204Z" fill="#2A3143"/>
<path d="M100.707 69.7596C99.2677 69.9647 98.6506 70.5798 99.062 70.7848C100.09 71.3999 103.792 70.9898 103.587 70.1697C103.381 69.5546 101.736 69.5546 100.707 69.7596Z" fill="#2A3143"/>
<path d="M97.4169 63.1986C96.1829 63.4036 95.5658 63.8137 95.9772 64.0187C96.7999 64.6338 100.091 64.2237 100.091 63.6086C99.6792 62.9936 98.2396 62.9936 97.4169 63.1986Z" fill="#2A3143"/>
<path d="M94.5372 56.6379C93.5088 56.8429 92.6862 57.0479 93.0975 57.458C93.7145 58.0731 96.7996 57.663 96.7996 57.0479C96.5939 56.6379 95.3599 56.4328 94.5372 56.6379Z" fill="#2A3143"/>
<path d="M92.6871 50.077C91.8644 50.077 91.2474 50.487 91.453 50.6921C91.8644 51.1021 94.3324 50.8971 94.5381 50.487C94.3324 50.077 93.3041 50.077 92.6871 50.077Z" fill="#2A3143"/>
<path d="M91.452 43.9258C90.835 43.9258 90.218 44.1308 90.4237 44.3359C90.6293 44.7459 92.686 44.5409 92.686 44.1308C92.686 43.9258 91.8634 43.7208 91.452 43.9258Z" fill="#2A3143"/>
<path d="M90.8352 37.57C90.4239 37.57 90.0125 37.7751 90.0125 37.9801C90.2182 38.1851 91.6579 38.1851 91.6579 37.7751C91.8635 37.57 91.2465 37.57 90.8352 37.57Z" fill="#2A3143"/>
<path d="M90.6294 31.4192L91.0407 31.6242L91.6577 31.4192H91.0407H90.6294Z" fill="#2A3143"/>
<path d="M91.864 25.2683V25.4734L92.2754 25.2683H92.0697H91.864Z" fill="#2A3143"/>
<path d="M419.702 224.351L419.907 224.146L419.702 223.941H419.496L419.702 224.351Z" fill="#2A3143"/>
<path d="M402.426 221.686C402.426 222.096 403.043 222.301 403.248 222.096C403.454 221.891 403.454 221.481 402.837 221.276C402.631 221.276 402.426 221.481 402.426 221.686Z" fill="#2A3143"/>
<path d="M385.355 219.02C385.355 219.635 386.177 220.045 386.794 219.635C387.206 219.225 387.206 218.61 386.383 218.405C385.56 218.2 385.355 218.61 385.355 219.02Z" fill="#2A3143"/>
<path d="M368.285 215.945C368.079 216.765 369.313 217.38 370.136 216.765C370.753 216.355 370.753 215.33 369.724 215.125C368.902 215.125 368.49 215.535 368.285 215.945Z" fill="#2A3143"/>
<path d="M351.626 212.664C351.42 213.689 352.654 214.304 353.888 213.689C354.916 213.074 354.711 212.049 353.682 211.639C353.682 211.639 353.682 211.639 353.477 211.639C352.448 211.639 351.626 212.254 351.626 212.664Z" fill="#2A3143"/>
<path d="M334.966 209.179C334.555 210.409 336.2 211.229 337.434 210.614C338.668 209.999 338.668 208.564 337.434 208.154H337.228C335.994 207.744 335.172 208.564 334.966 209.179Z" fill="#2A3143"/>
<path d="M318.512 205.283C317.895 206.513 319.541 207.539 321.186 206.923C322.626 206.308 322.831 204.668 321.597 204.258C321.597 204.258 321.392 204.258 321.186 204.053C319.746 203.643 318.718 204.463 318.512 205.283Z" fill="#2A3143"/>
<path d="M302.264 200.978C301.647 202.413 303.292 203.643 305.143 202.823C306.789 202.208 307.2 200.363 305.966 199.747C305.76 199.747 305.76 199.542 305.554 199.542C303.703 199.337 302.469 200.363 302.264 200.978Z" fill="#2A3143"/>
<path d="M286.222 196.672C285.4 198.107 287.045 199.543 288.896 198.927C290.953 198.312 291.775 196.467 290.336 195.647C290.13 195.442 289.924 195.442 289.719 195.442C288.073 194.827 286.634 195.852 286.222 196.672Z" fill="#2A3143"/>
<path d="M270.385 191.751C269.357 193.186 270.797 194.827 273.059 194.417C275.527 194.007 276.761 191.751 275.321 190.726C274.91 190.521 274.704 190.521 274.499 190.316C272.648 189.906 271.002 190.931 270.385 191.751Z" fill="#2A3143"/>
<path d="M254.96 186.831C253.726 188.471 255.166 190.111 257.634 189.701C260.308 189.291 261.748 186.831 260.308 185.806C260.102 185.601 259.897 185.601 259.691 185.396C257.634 184.781 255.577 185.806 254.96 186.831Z" fill="#2A3143"/>
<path d="M239.947 181.5C238.507 183.14 239.741 184.78 242.209 184.575C245.088 184.37 247.351 181.91 245.705 180.475C245.5 180.27 245.088 180.27 244.883 180.065C242.826 179.45 240.769 180.475 239.947 181.5Z" fill="#2A3143"/>
<path d="M225.138 175.964C223.492 177.604 224.726 179.45 227.4 179.245C230.485 179.04 233.159 176.579 231.308 174.939C231.102 174.734 230.896 174.529 230.691 174.529C228.428 173.914 226.166 174.939 225.138 175.964Z" fill="#2A3143"/>
<path d="M210.947 170.223C209.302 171.864 210.125 173.504 212.593 173.709C215.883 173.914 219.174 171.044 217.529 169.403C217.323 169.198 217.117 168.993 216.912 168.993C214.444 167.968 211.976 169.198 210.947 170.223Z" fill="#2A3143"/>
<path d="M197.166 164.073C195.315 165.713 196.138 167.558 198.606 167.763C202.102 167.968 205.599 165.098 203.953 163.457C203.748 163.252 203.542 163.047 203.336 163.047C200.868 162.022 198.195 163.047 197.166 164.073Z" fill="#2A3143"/>
<path d="M183.592 157.717C181.536 159.357 182.153 161.202 184.826 161.407C188.323 161.817 192.436 158.742 190.791 157.102C190.585 156.897 190.379 156.692 190.174 156.692C187.911 155.666 185.032 156.692 183.592 157.717Z" fill="#2A3143"/>
<path d="M170.841 151.156C168.784 152.591 168.99 154.436 171.458 154.846C174.954 155.461 179.685 152.591 178.245 150.541C178.039 150.336 177.834 150.131 177.628 149.926C175.366 149.311 172.281 150.131 170.841 151.156Z" fill="#2A3143"/>
<path d="M158.5 144.39C156.238 145.825 156.444 147.67 158.706 148.285C162.202 149.106 167.344 146.235 165.904 144.185C165.699 143.98 165.493 143.775 165.287 143.57C163.231 142.545 159.94 143.57 158.5 144.39Z" fill="#2A3143"/>
<path d="M146.778 137.419C144.515 138.854 144.515 140.699 146.778 141.315C150.274 142.135 155.622 139.469 154.388 137.419C154.182 137.214 153.976 137.009 153.771 136.804C151.508 135.779 148.218 136.599 146.778 137.419Z" fill="#2A3143"/>
<path d="M135.671 130.448C133.203 131.678 132.998 133.523 135.26 134.138C138.551 134.958 144.104 132.498 143.076 130.448C142.87 130.243 142.664 130.038 142.459 129.833C140.608 128.808 137.317 129.423 135.671 130.448Z" fill="#2A3143"/>
<path d="M125.594 123.272C123.331 124.502 122.714 126.142 124.566 126.757C127.651 127.988 133.821 125.527 132.998 123.272C132.998 123.067 132.792 122.862 132.587 122.657C130.53 121.632 127.239 122.452 125.594 123.272Z" fill="#2A3143"/>
<path d="M116.133 116.096C113.665 117.121 113.048 118.761 114.694 119.581C117.573 120.812 123.743 118.351 123.126 116.506C123.126 116.301 122.92 116.096 122.715 115.891C121.275 114.661 117.984 115.276 116.133 116.096Z" fill="#2A3143"/>
<path d="M107.701 108.92C105.233 109.945 104.616 111.38 106.055 112.2C108.729 113.431 115.311 110.97 114.488 109.125C114.488 108.92 114.282 108.92 114.282 108.715C112.637 107.69 109.552 108.305 107.701 108.92Z" fill="#2A3143"/>
<path d="M100.09 101.744C97.6224 102.564 96.7997 103.999 98.2394 104.819C100.707 106.05 107.289 103.794 106.466 101.949C106.466 101.744 106.261 101.744 106.261 101.539C105.027 100.719 101.736 101.129 100.09 101.744Z" fill="#2A3143"/>
<path d="M93.3041 94.7731C91.0417 95.5933 90.0133 97.0285 91.2474 97.6435C93.5097 98.8737 99.6798 96.8234 99.2685 95.1832L99.0628 94.9782C97.8288 93.748 94.9494 94.1581 93.3041 94.7731Z" fill="#2A3143"/>
<path d="M87.1341 87.597C84.8717 88.4171 83.8434 89.6473 84.8717 90.2624C86.9284 91.4925 92.8929 89.6473 92.6872 88.007C92.6872 88.007 92.6872 87.802 92.4815 87.802C91.8645 86.7769 89.1908 86.9819 87.1341 87.597Z" fill="#2A3143"/>
<path d="M81.9918 80.4212C79.7295 81.0363 78.7011 82.2664 79.7294 82.8815C81.5805 84.1117 87.7506 82.2664 87.1336 80.8312C87.1336 80.8312 87.1336 80.8312 87.1336 80.6262C86.3109 79.8061 83.6372 80.0111 81.9918 80.4212Z" fill="#2A3143"/>
<path d="M77.4666 73.4502C75.2042 74.0653 74.1759 75.0904 75.4099 75.7055C77.2609 76.5256 82.6083 75.0904 82.197 73.8602C82.197 73.8602 82.197 73.8602 82.197 73.6552C81.58 72.8351 79.1119 73.0401 77.4666 73.4502Z" fill="#2A3143"/>
<path d="M73.97 66.4791C71.9133 66.8892 70.8849 67.9143 71.9133 68.5294C73.353 69.3495 78.2891 68.1194 78.2891 66.8892C78.2891 66.8892 78.2891 66.8892 78.2891 66.6842C77.4664 65.864 75.204 66.0691 73.97 66.4791Z" fill="#2A3143"/>
<path d="M71.0916 59.5082C69.2406 59.9183 68.2123 60.7384 69.0349 61.1484C70.269 61.9685 75.205 60.9434 74.9994 59.7132C74.3824 59.0981 72.3257 59.0981 71.0916 59.5082Z" fill="#2A3143"/>
<path d="M69.0348 52.5372C67.3894 52.9473 66.3611 53.5624 66.9781 53.9724C68.0064 54.5875 72.3255 53.9724 72.1198 52.7423C71.9142 52.3322 70.0631 52.3322 69.0348 52.5372Z" fill="#2A3143"/>
<path d="M67.5948 45.7712C66.1551 45.9762 65.1267 46.5913 65.7437 47.0014C66.5664 47.6165 70.4741 47.0014 70.4741 45.9762C70.2685 45.5662 68.6231 45.5662 67.5948 45.7712Z" fill="#2A3143"/>
<path d="M67.1832 39.0056C66.1548 39.2106 65.1265 39.6206 65.5378 40.0307C66.1548 40.4408 69.4456 40.0307 69.4456 39.4156C69.2399 39.0056 68.0059 39.0056 67.1832 39.0056Z" fill="#2A3143"/>
<path d="M67.3887 32.4444C66.3604 32.6494 65.7434 33.0595 65.949 33.2645C66.3604 33.6746 69.0341 33.4695 69.2397 32.8545C69.2397 32.4444 68.2114 32.4444 67.3887 32.4444Z" fill="#2A3143"/>
<path d="M68.4177 26.0885C67.595 26.0885 66.978 26.4986 67.3894 26.7036C67.8007 26.9086 69.6518 26.7036 69.8574 26.2936C69.6518 25.8835 69.0347 25.8835 68.4177 26.0885Z" fill="#2A3143"/>
<path d="M70.2679 19.7328C69.6509 19.7328 69.2395 19.9378 69.4452 20.1428C69.6509 20.3479 71.0906 20.1428 71.0906 19.9378C71.0906 19.7328 70.4736 19.5278 70.2679 19.7328Z" fill="#2A3143"/>
<path d="M72.3245 13.5819L72.5302 13.7869L73.1472 13.5819L72.7359 13.3769L72.3245 13.5819Z" fill="#2A3143"/>
<path d="M417.646 239.113C417.646 239.933 418.674 240.138 419.291 239.728C419.702 239.318 419.497 238.498 418.674 238.498C417.851 238.293 417.646 238.703 417.646 239.113Z" fill="#2A3143"/>
<path d="M399.546 236.653C399.546 237.678 400.986 238.088 401.603 237.473C402.014 237.063 402.014 235.832 400.78 235.627C399.958 235.627 399.546 236.037 399.546 236.653Z" fill="#2A3143"/>
<path d="M381.447 233.782C381.241 235.012 383.093 235.832 384.121 234.807C384.944 234.192 384.738 232.757 383.298 232.552C382.064 232.347 381.447 233.167 381.447 233.782Z" fill="#2A3143"/>
<path d="M363.555 230.502C363.349 231.937 365.2 232.962 366.64 231.937C367.668 231.117 367.668 229.477 366.023 229.067C364.377 228.862 363.555 229.887 363.555 230.502Z" fill="#2A3143"/>
<path d="M345.661 227.016C345.25 228.657 347.512 229.887 349.158 228.862C350.597 228.041 350.597 225.991 348.54 225.376C346.895 225.171 345.867 226.196 345.661 227.016Z" fill="#2A3143"/>
<path d="M327.973 223.326C327.356 225.171 329.824 226.606 331.88 225.376C333.526 224.556 333.731 222.095 331.263 221.48C329.412 221.07 328.178 222.3 327.973 223.326Z" fill="#2A3143"/>
<path d="M310.491 219.02C309.668 221.071 312.136 222.711 314.399 221.686C316.661 220.66 316.867 217.995 314.604 217.175H314.399C312.342 216.765 310.902 217.995 310.491 219.02Z" fill="#2A3143"/>
<path d="M293.214 214.714C292.186 216.97 294.859 218.61 297.533 217.585C300.207 216.56 300.413 213.689 298.15 212.664H297.945C295.271 212.049 293.625 213.484 293.214 214.714Z" fill="#2A3143"/>
<path d="M276.144 209.794C274.91 212.049 277.378 214.099 280.257 213.279C283.137 212.459 284.165 209.179 281.903 207.948C281.697 207.948 281.491 207.743 281.286 207.743C278.818 207.128 276.761 208.564 276.144 209.794Z" fill="#2A3143"/>
<path d="M259.484 204.873C258.045 207.334 260.513 209.589 263.803 208.564C267.094 207.744 268.328 204.258 265.86 203.028C265.654 203.028 265.449 202.823 265.243 202.823C262.364 202.003 260.101 203.438 259.484 204.873Z" fill="#2A3143"/>
<path d="M243.031 199.542C241.386 202.208 243.854 204.463 247.35 203.643C251.052 202.823 252.492 199.132 250.024 197.697C249.818 197.492 249.613 197.492 249.407 197.492C246.322 196.467 243.854 198.107 243.031 199.542Z" fill="#2A3143"/>
<path d="M226.989 193.802C225.138 196.262 227.4 198.927 230.897 198.312C234.804 197.697 237.067 194.007 234.804 192.161C234.393 191.956 234.187 191.751 233.776 191.546C230.897 190.726 228.017 192.366 226.989 193.802Z" fill="#2A3143"/>
<path d="M211.358 187.856C209.301 190.521 211.358 193.187 215.266 192.571C219.379 191.956 222.053 188.266 219.791 186.216C219.379 186.011 219.174 185.806 218.762 185.601C215.677 184.78 212.592 186.421 211.358 187.856Z" fill="#2A3143"/>
<path d="M196.344 181.705C194.082 184.165 195.727 187.036 199.429 186.831C203.954 186.626 207.45 182.525 204.982 180.27C204.571 180.065 204.365 179.86 203.954 179.655C200.869 178.63 197.578 180.27 196.344 181.705Z" fill="#2A3143"/>
<path d="M181.536 175.144C179.068 177.81 180.508 180.68 184.415 180.475C189.146 180.475 193.053 176.169 190.791 173.914C190.38 173.504 190.174 173.299 189.763 173.299C186.678 172.069 183.181 173.709 181.536 175.144Z" fill="#2A3143"/>
<path d="M167.345 168.583C164.671 171.043 166.111 174.119 170.019 174.119C174.749 174.119 179.068 170.018 177.011 167.558C176.806 167.148 176.394 166.943 175.983 166.943C172.898 165.508 168.99 166.943 167.345 168.583Z" fill="#2A3143"/>
<path d="M153.771 161.612C151.097 164.073 151.92 166.943 155.622 167.353C160.558 167.763 165.7 163.458 163.643 160.792C163.437 160.382 163.026 160.177 162.615 159.972C159.53 158.537 155.622 159.972 153.771 161.612Z" fill="#2A3143"/>
<path d="M140.813 154.436C137.934 156.897 138.551 159.767 142.253 160.177C147.189 160.792 152.742 156.487 150.891 153.616C150.686 153.206 150.274 153.001 150.069 152.796C146.778 151.361 142.664 152.796 140.813 154.436Z" fill="#2A3143"/>
<path d="M128.267 147.055C125.182 149.311 125.594 152.386 129.296 153.001C134.232 153.616 140.196 149.516 138.345 146.645C138.14 146.235 137.728 146.03 137.523 145.825C134.437 144.185 130.324 145.415 128.267 147.055Z" fill="#2A3143"/>
<path d="M116.75 139.469C113.459 141.725 113.665 144.595 117.162 145.21C122.098 146.03 128.473 141.52 126.211 138.854C126.005 138.649 125.8 138.444 125.594 138.444C122.92 136.804 118.807 138.034 116.75 139.469Z" fill="#2A3143"/>
<path d="M106.054 131.883C102.969 133.933 102.764 136.599 105.643 137.419C109.962 138.649 116.955 134.549 115.721 131.678C115.515 131.268 115.31 131.063 115.104 130.858C112.43 129.423 108.111 130.653 106.054 131.883Z" fill="#2A3143"/>
<path d="M96.1825 124.297C93.0975 126.142 92.4805 128.808 95.3599 129.628C99.6789 130.858 107.083 126.758 105.438 124.092C105.232 123.887 105.232 123.682 105.026 123.682C102.558 122.042 98.4449 123.067 96.1825 124.297Z" fill="#2A3143"/>
<path d="M87.3385 116.711C84.0478 118.556 83.4308 121.017 86.1045 121.837C90.0122 123.067 97.4163 119.172 96.1823 116.506C96.1823 116.301 95.9767 116.096 95.771 116.096C93.7143 114.661 89.8066 115.481 87.3385 116.711Z" fill="#2A3143"/>
<path d="M79.3184 109.125C76.2334 110.765 75.205 113.021 77.6731 113.841C81.3751 115.071 88.7792 111.585 87.7509 108.92C87.7509 108.715 87.5452 108.51 87.3396 108.51C85.4885 107.28 81.3751 108.1 79.3184 109.125Z" fill="#2A3143"/>
<path d="M72.1189 101.744C69.0338 103.179 68.0055 105.434 70.0622 106.255C73.5586 107.485 81.1683 103.794 79.7287 101.539L79.523 101.334C78.289 99.8987 74.5869 100.514 72.1189 101.744Z" fill="#2A3143"/>
<path d="M65.7432 94.1579C62.6581 95.5931 61.6298 97.6434 63.4808 98.2585C66.5659 99.4887 73.97 96.2082 72.9417 93.9529C72.9417 93.9529 72.9417 93.7479 72.736 93.7479C71.502 92.5177 67.7999 93.1328 65.7432 94.1579Z" fill="#2A3143"/>
<path d="M60.396 86.5719C57.5166 87.802 56.2825 89.6473 57.9279 90.4674C60.6016 91.6976 67.8001 88.6222 66.9774 86.5719V86.3669C65.7434 85.3417 62.6583 85.5467 60.396 86.5719Z" fill="#2A3143"/>
<path d="M55.6662 79.1909C52.9925 80.2161 51.7585 82.0613 53.1982 82.6764C55.6662 83.9066 62.2476 81.2412 61.8363 79.396V79.1909C60.8079 77.9608 57.9286 78.3708 55.6662 79.1909Z" fill="#2A3143"/>
<path d="M51.9641 71.81C49.4961 72.8351 48.0564 74.2703 49.2904 74.8854C51.3471 75.9106 57.7229 73.6553 57.3115 72.015V71.81C56.6945 70.7849 54.0208 70.9899 51.9641 71.81Z" fill="#2A3143"/>
<path d="M48.8786 64.429C46.4106 65.2491 45.1766 66.6843 46.2049 67.2993C47.8503 68.3245 54.226 66.4792 53.8147 64.634C53.1977 63.6088 50.9353 63.8139 48.8786 64.429Z" fill="#2A3143"/>
<path d="M46.822 57.2528C44.5597 58.0729 43.3256 59.3031 44.354 59.7131C45.9994 60.3282 51.1411 58.893 51.1411 57.2528C50.7298 56.4327 48.4674 56.6377 46.822 57.2528Z" fill="#2A3143"/>
<path d="M45.3824 49.872C43.3257 50.4871 42.0917 51.7172 42.9144 52.1273C44.1484 52.7424 49.0845 51.5122 49.0845 50.077C48.8788 49.4619 47.0278 49.4619 45.3824 49.872Z" fill="#2A3143"/>
<path d="M44.9709 42.901C43.1198 43.311 41.8858 44.3362 42.7085 44.7462C43.7368 45.3613 47.8502 44.1311 48.0559 43.106C47.8502 42.4909 46.2049 42.4909 44.9709 42.901Z" fill="#2A3143"/>
<path d="M45.1769 35.93C43.5315 36.3401 42.5032 37.1602 43.1202 37.5703C43.9429 37.9803 47.6449 37.1602 47.8506 36.1351C47.8506 35.52 46.2052 35.725 45.1769 35.93Z" fill="#2A3143"/>
<path d="M46.4106 29.164C44.9709 29.574 44.1482 30.1891 44.5596 30.3942C45.1766 30.8042 48.2616 30.1891 48.4673 29.369C48.4673 28.7539 47.2333 28.959 46.4106 29.164Z" fill="#2A3143"/>
<path d="M48.2614 22.3982C47.233 22.6032 46.4103 23.0133 46.8217 23.4233C47.233 23.8334 49.7011 23.2183 49.9067 22.6032C49.9067 22.1932 49.0841 22.1932 48.2614 22.3982Z" fill="#2A3143"/>
<path d="M50.935 15.8372C50.1124 16.0422 49.4953 16.4523 49.701 16.4523C50.1124 16.6573 51.7577 16.2473 51.9634 15.8372C52.1691 15.6322 51.3464 15.6322 50.935 15.8372Z" fill="#2A3143"/>
<path d="M54.4316 9.27631C54.0202 9.27631 53.4032 9.68636 53.6089 9.68636C53.8146 9.89139 54.8429 9.68636 55.0486 9.27631C55.2542 9.27631 54.8429 9.27631 54.4316 9.27631Z" fill="#2A3143"/>
<path d="M58.3394 3.33048H58.5451L59.1621 3.12546H58.7508L58.3394 3.33048Z" fill="#2A3143"/>
<path d="M377.539 249.775C377.333 251.62 379.596 252.645 381.035 251.415C382.269 250.39 382.064 248.544 380.007 247.929C378.567 247.929 377.745 248.954 377.539 249.775Z" fill="#2A3143"/>
<path d="M358.617 246.494C358.412 248.544 360.88 249.774 362.731 248.544C364.376 247.519 363.965 245.059 361.702 244.649C359.851 244.239 358.823 245.469 358.617 246.494Z" fill="#2A3143"/>
<path d="M339.902 242.803C339.491 245.059 342.37 246.494 344.427 245.264C346.278 244.034 346.072 241.368 343.604 240.753C341.342 240.343 340.108 241.573 339.902 242.803Z" fill="#2A3143"/>
<path d="M321.186 238.703C320.569 241.368 323.86 243.009 326.328 241.573C328.385 240.343 328.385 237.268 325.505 236.448C323.037 235.833 321.598 237.473 321.186 238.703Z" fill="#2A3143"/>
<path d="M302.676 234.397C301.853 237.063 304.938 239.113 307.817 237.678C310.697 236.243 310.697 232.757 308.023 231.937C308.023 231.937 307.817 231.937 307.612 231.937C304.938 231.322 303.087 232.962 302.676 234.397Z" fill="#2A3143"/>
<path d="M284.576 229.682C283.548 232.552 286.839 235.012 290.129 233.372C293.214 231.937 293.626 228.246 290.541 227.016C290.335 227.016 290.335 227.016 290.129 226.811C287.25 226.401 285.193 228.246 284.576 229.682Z" fill="#2A3143"/>
<path d="M266.683 224.556C265.243 227.631 268.74 230.297 272.442 228.861C275.938 227.426 276.555 223.326 273.264 221.891C273.059 221.891 273.059 221.891 272.853 221.685C269.768 221.07 267.3 222.916 266.683 224.556Z" fill="#2A3143"/>
<path d="M248.995 219.225C247.35 222.506 250.641 225.171 254.548 224.146C258.662 222.916 259.896 218.61 256.811 216.765C256.605 216.56 256.194 216.56 255.988 216.355C252.492 215.535 249.818 217.585 248.995 219.225Z" fill="#2A3143"/>
<path d="M231.719 213.689C229.868 217.175 233.159 220.25 237.272 219.02C241.797 217.585 243.442 213.074 240.152 211.024C239.946 210.819 239.535 210.819 239.329 210.614C235.832 209.589 232.747 211.844 231.719 213.689Z" fill="#2A3143"/>
<path d="M214.855 207.744C212.592 211.229 215.883 214.715 220.614 213.484C225.344 212.254 227.401 207.334 223.904 205.283C223.699 205.078 223.287 204.873 223.082 204.873C219.38 203.643 216.089 205.693 214.855 207.744Z" fill="#2A3143"/>
<path d="M198.4 201.388C195.932 204.873 198.812 208.359 203.542 207.744C208.89 206.923 211.769 201.388 208.273 198.927C208.067 198.722 207.656 198.517 207.45 198.517C203.337 197.082 199.84 199.337 198.4 201.388Z" fill="#2A3143"/>
<path d="M182.359 194.827C179.685 198.517 182.565 202.208 187.295 201.593C193.054 200.773 196.345 195.032 192.643 192.572C192.437 192.367 192.025 192.161 191.614 192.161C187.912 190.521 184.004 192.777 182.359 194.827Z" fill="#2A3143"/>
<path d="M166.933 188.061C163.848 191.751 166.522 195.647 171.664 195.032C177.628 194.417 181.33 188.471 177.834 185.6C177.628 185.395 177.217 185.19 176.806 184.985C172.898 183.55 168.579 186.01 166.933 188.061Z" fill="#2A3143"/>
<path d="M151.92 180.885C148.629 184.78 151.097 188.881 156.444 188.266C162.615 187.651 166.934 181.705 163.437 178.63C163.232 178.425 162.82 178.22 162.409 178.014C158.295 176.579 153.771 178.835 151.92 180.885Z" fill="#2A3143"/>
<path d="M137.523 173.504C134.026 176.989 136.083 181.295 141.019 181.295C147.395 181.295 152.948 174.939 149.246 171.659C149.04 171.454 148.629 171.249 148.423 171.043C144.515 169.198 139.579 171.454 137.523 173.504Z" fill="#2A3143"/>
<path d="M123.948 165.918C120.246 169.403 121.891 173.914 127.033 173.914C133.409 173.914 139.579 167.558 136.082 164.278C135.877 164.073 135.465 163.868 135.26 163.663C131.146 161.612 126.005 163.868 123.948 165.918Z" fill="#2A3143"/>
<path d="M110.786 158.127C106.878 161.612 108.317 165.918 113.254 166.123C119.629 166.328 126.005 159.972 122.714 156.692C122.509 156.487 122.097 156.282 121.892 156.077C118.19 154.026 113.254 156.077 110.786 158.127Z" fill="#2A3143"/>
<path d="M98.651 150.336C94.5376 153.821 95.566 158.127 100.502 158.332C106.672 158.742 113.459 152.591 110.58 149.105C110.374 148.9 109.963 148.695 109.757 148.49C106.261 146.235 101.119 148.285 98.651 150.336Z" fill="#2A3143"/>
<path d="M87.5447 142.34C83.6369 145.415 83.8426 149.31 88.1617 150.131C94.1261 150.951 101.736 144.8 99.0622 141.314C98.8565 141.109 98.6509 140.904 98.4452 140.699C95.1545 138.444 90.0127 140.289 87.5447 142.34Z" fill="#2A3143"/>
<path d="M77.4672 134.343C73.5594 137.214 73.5594 141.109 77.4672 141.724C83.0203 142.75 90.6301 136.804 88.5734 133.523C88.3677 133.318 88.162 133.113 87.9563 132.908C84.8713 130.858 79.9352 132.498 77.4672 134.343Z" fill="#2A3143"/>
<path d="M68.0055 126.553C64.0978 129.218 63.6864 132.908 67.3885 133.523C72.7359 134.549 80.7571 128.603 78.289 125.527L78.0833 125.322C75.4096 123.067 70.6792 124.707 68.0055 126.553Z" fill="#2A3143"/>
<path d="M59.7795 118.556C55.8718 121.017 55.2548 124.502 58.7512 125.117C63.6873 126.142 71.7084 120.607 69.446 117.531L69.2404 117.326C66.7723 115.481 62.2476 116.916 59.7795 118.556Z" fill="#2A3143"/>
<path d="M52.3746 110.56C48.6725 112.816 47.8498 116.096 50.7292 116.711C55.2539 117.736 63.0694 112.611 61.2184 109.74L61.0127 109.535C58.956 107.895 54.6369 109.125 52.3746 110.56Z" fill="#2A3143"/>
<path d="M45.7934 102.769C42.297 104.819 41.2687 107.895 43.9424 108.51C48.0558 109.535 55.4599 104.819 54.2259 102.154L54.0202 101.949C52.3748 100.309 48.4671 101.129 45.7934 102.769Z" fill="#2A3143"/>
<path d="M40.0351 94.773C36.5387 96.6182 35.5103 99.4886 37.7727 100.104C41.0634 101.129 48.8789 96.8233 47.4392 94.1579C46.2052 92.5177 42.2974 93.7478 40.0351 94.773Z" fill="#2A3143"/>
<path d="M35.3043 86.982C32.0136 88.6222 30.7796 91.2876 32.8363 91.9027C35.7156 92.7228 43.3254 89.0323 42.0914 86.572C41.0631 85.1368 37.7723 85.7518 35.3043 86.982Z" fill="#2A3143"/>
<path d="M31.1913 79.1909C28.1062 80.6261 26.6666 83.0864 28.5176 83.7015C30.9856 84.5216 38.1841 81.2412 37.3614 78.9859C36.7444 77.5507 33.6593 78.1657 31.1913 79.1909Z" fill="#2A3143"/>
<path d="M28.3122 71.6049C25.4328 73.0401 23.9931 75.0904 25.6385 75.5005C27.9008 76.3206 34.2766 73.4502 33.8653 71.1949C33.0426 70.1697 30.3689 70.5798 28.3122 71.6049Z" fill="#2A3143"/>
<path d="M26.0496 64.0189C23.3759 65.2491 22.1419 66.8893 23.3759 67.5044C25.2269 68.3245 31.1914 65.6591 30.78 63.8139C30.3687 62.5837 27.695 63.1988 26.0496 64.0189Z" fill="#2A3143"/>
<path d="M24.6095 56.4328C22.1415 57.4579 20.9075 59.0982 21.9358 59.5082C23.3755 60.1233 28.9286 58.073 28.7229 56.2278C28.5173 55.2026 26.2549 55.8177 24.6095 56.4328Z" fill="#2A3143"/>
<path d="M24.1978 48.8466C21.9355 49.6667 20.7015 51.1019 21.5241 51.512C22.7582 52.1271 27.6942 50.2818 27.8999 48.6416C27.6942 48.0265 25.8432 48.2315 24.1978 48.8466Z" fill="#2A3143"/>
<path d="M24.4042 41.6708C22.5532 42.2859 21.3191 43.5161 21.9362 43.9262C22.9645 44.5412 27.0779 42.901 27.4893 41.6708C27.4893 40.8507 25.6382 41.2608 24.4042 41.6708Z" fill="#2A3143"/>
<path d="M25.6381 34.4946C23.9927 35.1097 22.7587 36.1349 23.5814 36.3399C24.404 36.75 27.9004 35.5198 28.3118 34.4946C28.1061 33.8796 26.6664 34.0846 25.6381 34.4946Z" fill="#2A3143"/>
<path d="M27.6955 27.3186C26.2558 27.7287 25.2275 28.5488 25.8445 28.7538C26.4615 29.1639 29.3409 28.1387 29.7522 27.3186C29.7522 26.9086 28.7238 27.1136 27.6955 27.3186Z" fill="#2A3143"/>
<path d="M30.5736 20.5528C29.5453 20.9629 28.5169 21.578 28.9282 21.783C29.3396 21.988 31.6019 21.1679 32.0133 20.5528C32.219 20.1428 31.1906 20.1428 30.5736 20.5528Z" fill="#2A3143"/>
<path d="M34.2761 13.7868C33.4534 13.9918 32.8364 14.6069 33.0421 14.6069C33.4534 14.8119 35.0988 14.1969 35.3044 13.7868C35.3044 13.3767 34.6874 13.5818 34.2761 13.7868Z" fill="#2A3143"/>
<path d="M38.5949 7.22604C37.9779 7.43107 37.5665 7.6361 37.7722 7.84113C37.9779 8.04616 39.0062 7.6361 39.2119 7.43107C39.4176 7.02101 39.0062 7.02102 38.5949 7.22604C38.8006 7.22604 38.8006 7.22604 38.5949 7.22604Z" fill="#2A3143"/>
<path d="M43.5311 1.07504L43.9424 1.07504L44.3538 0.870007L44.1481 0.664978L43.5311 1.07504Z" fill="#2A3143"/>
<path d="M295.477 251.005C294.655 254.285 298.562 256.745 301.648 254.695C304.527 253.055 304.527 249.159 300.825 247.929C297.945 247.314 296.094 249.364 295.477 251.005Z" fill="#2A3143"/>
<path d="M276.555 246.084C275.526 249.569 279.228 252.03 282.725 250.39C286.221 248.749 286.427 244.239 282.93 243.009C282.725 243.009 282.725 243.009 282.519 242.804C279.434 242.188 277.172 244.239 276.555 246.084Z" fill="#2A3143"/>
<path d="M257.84 240.753C256.4 244.444 260.513 247.314 264.421 245.674C268.329 243.829 268.74 239.113 265.038 237.678C264.832 237.678 264.627 237.473 264.627 237.473C261.13 236.653 258.457 238.908 257.84 240.753Z" fill="#2A3143"/>
<path d="M239.33 235.217C237.684 239.113 241.798 242.393 246.117 240.548C250.436 238.703 251.053 233.577 247.351 231.937C247.145 231.937 246.94 231.732 246.94 231.732C243.237 230.707 240.152 233.167 239.33 235.217Z" fill="#2A3143"/>
<path d="M221.436 229.272C219.379 233.577 223.698 237.063 228.429 235.217C233.159 233.372 234.188 227.836 230.074 225.991C229.868 225.991 229.663 225.786 229.663 225.786C225.549 224.556 222.259 227.221 221.436 229.272Z" fill="#2A3143"/>
<path d="M203.543 223.121C201.28 227.426 205.188 231.117 210.124 229.682C215.677 228.041 217.323 221.89 213.003 219.635C212.798 219.635 212.592 219.43 212.386 219.43C208.479 218.2 204.777 220.865 203.543 223.121Z" fill="#2A3143"/>
<path d="M186.266 216.56C183.593 221.07 187.5 225.171 193.054 223.736C199.018 222.095 201.075 215.535 196.55 213.074C196.344 213.074 196.139 212.869 195.933 212.869C191.614 211.434 187.706 214.099 186.266 216.56Z" fill="#2A3143"/>
<path d="M169.607 209.589C166.728 214.099 170.636 218.815 176.394 217.38C182.565 215.74 185.238 208.974 180.714 206.308C180.508 206.308 180.302 206.103 180.097 206.103C175.366 204.258 171.253 207.128 169.607 209.589Z" fill="#2A3143"/>
<path d="M153.359 202.413C150.274 206.924 153.565 211.639 159.324 210.819C165.905 209.794 169.813 202.618 165.494 199.338C165.288 199.133 164.671 198.928 164.465 198.723C159.735 197.082 155.004 199.748 153.359 202.413Z" fill="#2A3143"/>
<path d="M137.523 195.032C134.027 199.747 137.318 204.873 143.282 204.053C150.275 203.233 154.594 195.647 150.48 192.161C150.275 191.956 149.658 191.751 149.452 191.546C144.516 189.291 139.58 192.366 137.523 195.032Z" fill="#2A3143"/>
<path d="M122.509 187.241C118.601 192.162 121.686 197.492 127.856 196.877C135.055 196.057 140.196 188.471 135.877 184.576C135.672 184.371 135.055 183.96 134.849 183.755C129.913 181.5 124.771 184.371 122.509 187.241Z" fill="#2A3143"/>
<path d="M107.906 179.245C103.587 184.37 106.467 189.906 113.048 189.291C120.864 188.471 126.622 179.86 121.686 176.169C121.481 175.964 121.275 175.964 121.069 175.759C116.133 173.504 110.374 176.374 107.906 179.245Z" fill="#2A3143"/>
<path d="M94.3314 170.838C89.8067 175.759 92.4804 181.705 98.8561 181.295C106.877 180.68 112.842 172.069 108.111 168.173C107.906 167.968 107.7 167.968 107.494 167.763C102.764 165.303 96.7994 168.173 94.3314 170.838Z" fill="#2A3143"/>
<path d="M81.7854 162.637C77.2606 167.148 78.906 172.684 84.6648 172.889C92.0689 173.094 99.2674 164.893 95.771 160.587C95.5653 160.382 95.154 159.972 94.7426 159.767C90.2179 157.307 84.4591 159.972 81.7854 162.637Z" fill="#2A3143"/>
<path d="M70.2687 154.436C65.7439 158.742 66.9779 163.868 72.3254 164.278C79.5238 164.483 87.1336 156.077 83.0202 152.181C82.8145 151.976 82.6089 151.976 82.6089 151.771C78.7011 149.311 72.9424 151.976 70.2687 154.436Z" fill="#2A3143"/>
<path d="M59.7787 146.235C55.4597 150.131 56.0767 155.256 61.0128 155.461C67.5942 155.872 75.204 148.08 71.7076 144.185C71.5019 143.98 71.5019 143.98 71.2963 143.775C67.7999 141.52 62.4524 143.775 59.7787 146.235Z" fill="#2A3143"/>
<path d="M50.3189 138.034C45.9998 141.724 46.2055 146.44 50.7302 146.645C56.6946 147.055 64.3044 139.674 61.4251 136.189C61.4251 135.984 61.2194 135.984 61.0137 135.779C57.9287 133.728 52.7869 135.779 50.3189 138.034Z" fill="#2A3143"/>
<path d="M41.681 129.833C37.5676 133.113 37.3619 137.624 41.4753 137.829C47.0284 138.239 54.4325 131.473 51.9645 128.193C51.9645 127.988 51.7588 127.988 51.7588 127.783C49.2908 125.937 44.5603 127.373 41.681 129.833Z" fill="#2A3143"/>
<path d="M33.8644 121.427C29.751 124.502 29.3396 128.603 33.2474 129.013C38.1835 129.423 45.7933 123.272 43.3252 119.786C40.8572 117.941 36.3324 119.581 33.8644 121.427Z" fill="#2A3143"/>
<path d="M27.0778 113.226C23.1701 116.096 22.5531 119.787 25.8438 120.197C30.1629 120.607 37.567 115.071 35.5103 111.79C33.8649 110.15 29.7515 111.38 27.0778 113.226Z" fill="#2A3143"/>
<path d="M21.1133 105.024C17.4112 107.69 16.5886 111.175 19.4679 111.38C23.3757 111.79 30.5741 106.665 28.9288 103.794C27.4891 102.154 23.3757 103.589 21.1133 105.024Z" fill="#2A3143"/>
<path d="M16.1774 97.0282C12.681 99.2835 11.6527 102.564 14.3264 102.974C17.8228 103.384 24.6099 98.8735 23.1702 96.0031C21.9362 94.1578 18.4398 95.593 16.1774 97.0282Z" fill="#2A3143"/>
<path d="M12.063 88.8272C8.77223 90.8775 7.5382 93.7479 9.80057 94.1579C12.68 94.568 19.2614 90.4674 18.2331 88.0071C17.616 86.5719 14.531 87.392 12.063 88.8272Z" fill="#2A3143"/>
<path d="M8.97828 80.8311C5.89323 82.6763 4.6592 85.3417 6.7159 85.7517C9.38961 86.1618 15.354 82.4713 14.737 80.216C13.9144 78.7808 11.035 79.3959 8.97828 80.8311Z" fill="#2A3143"/>
<path d="M6.51054 72.8351C3.63116 74.4753 2.39714 76.7306 4.0425 77.1407C6.30488 77.5507 11.6523 74.2703 11.4466 72.22C11.0353 70.9898 8.36157 71.8099 6.51054 72.8351Z" fill="#2A3143"/>
<path d="M5.07069 65.0439C2.60265 66.4791 1.16295 68.5294 2.60264 68.9395C4.45367 69.3495 9.59543 66.4791 9.38976 64.6339C9.18409 63.4037 7.12739 63.8138 5.07069 65.0439Z" fill="#2A3143"/>
<path d="M4.65926 57.253C2.39689 58.4832 0.957206 60.3284 2.19123 60.5335C3.63092 60.9435 8.15566 58.4832 8.36133 56.8429C8.15566 55.8178 6.09895 56.4329 4.65926 57.253Z" fill="#2A3143"/>
<path d="M5.07144 49.4617C3.01474 50.4868 1.78071 52.1271 2.60339 52.3321C3.83741 52.7422 7.95082 50.4868 8.15649 49.0517C8.15649 48.2315 6.30546 48.8466 5.07144 49.4617Z" fill="#2A3143"/>
<path d="M6.30516 42.0809C4.6598 42.901 3.42578 44.3362 4.04279 44.5412C4.86547 44.9513 8.36185 43.106 8.77319 41.8758C8.77319 41.0557 7.53918 41.4658 6.30516 42.0809Z" fill="#2A3143"/>
<path d="M8.36117 34.6997C6.92148 35.5198 5.68746 36.545 6.30447 36.75C6.92148 36.955 10.0065 35.5198 10.4179 34.4947C10.6235 33.8796 9.18385 34.2897 8.36117 34.6997Z" fill="#2A3143"/>
<path d="M11.2406 27.5238C10.0066 28.1389 8.97822 28.959 9.38956 29.164C9.8009 29.3691 12.2689 28.3439 12.6803 27.5238C13.0916 26.7037 12.0633 27.1138 11.2406 27.5238Z" fill="#2A3143"/>
<path d="M15.148 20.3479C14.1197 20.7579 13.5026 21.373 13.7083 21.578C14.1197 21.7831 15.9707 20.7579 16.382 20.3479C16.5877 19.9378 15.765 20.1428 15.765 20.3479C15.5593 20.1428 15.3537 20.3479 15.148 20.3479Z" fill="#2A3143"/>
<path d="M19.8796 13.5819C19.2625 13.9919 18.6455 14.402 18.8512 14.402C19.0569 14.402 20.2909 13.9919 20.7022 13.5819C20.7022 13.5819 20.9079 13.3769 20.4966 13.3769C20.2909 13.3769 20.0852 13.3769 19.8796 13.5819Z" fill="#2A3143"/>
<path d="M25.4319 6.81587C25.0206 7.0209 24.6092 7.22592 24.8149 7.22592C25.0206 7.22592 25.6376 7.0209 25.8433 6.61084C25.8433 6.61084 25.6376 6.81587 25.4319 6.81587Z" fill="#2A3143"/>
<path d="M31.8091 0.458807L32.0134 0.255005V0.458807L31.8091 0.458807Z" fill="#2A3143"/>
<path d="M230.485 252.44C229.045 256.54 233.364 260.026 237.683 257.976C241.797 256.13 242.825 250.39 238.094 248.749C234.187 247.929 231.307 250.39 230.485 252.44Z" fill="#2A3143"/>
<path d="M211.769 246.494C209.918 251.005 214.443 254.695 219.173 252.645C223.698 250.595 224.932 244.649 219.996 242.803C215.883 241.573 212.798 244.239 211.769 246.494Z" fill="#2A3143"/>
<path d="M193.464 239.933C191.408 244.649 195.932 248.749 200.868 246.494C205.805 244.444 207.244 238.088 202.103 236.038C197.989 234.807 194.493 237.473 193.464 239.933Z" fill="#2A3143"/>
<path d="M175.572 233.167C173.309 237.883 177.217 242.188 182.564 240.548C188.323 238.908 190.174 231.937 185.444 229.477C185.238 229.477 185.032 229.272 184.827 229.272C180.508 227.836 176.806 230.707 175.572 233.167Z" fill="#2A3143"/>
<path d="M158.089 225.991C155.415 230.912 159.529 235.422 165.082 233.987C171.252 232.347 173.514 224.966 168.578 222.301C168.373 222.301 168.167 222.096 167.961 222.096C163.642 220.455 159.529 223.326 158.089 225.991Z" fill="#2A3143"/>
<path d="M141.431 218.61C138.346 223.736 142.459 228.656 148.218 227.016C154.593 225.376 157.267 217.79 152.537 214.92C152.331 214.92 152.125 214.715 151.92 214.715C147.189 212.869 142.87 215.945 141.431 218.61Z" fill="#2A3143"/>
<path d="M124.976 210.819C121.685 215.945 125.593 221.276 131.763 219.84C138.345 218.2 141.43 210.409 136.699 207.334C136.494 207.129 136.288 207.129 136.082 206.924C131.352 205.078 126.827 207.949 124.976 210.819Z" fill="#2A3143"/>
<path d="M109.346 202.823C105.644 208.154 109.551 213.689 115.927 212.254C122.92 210.614 126.416 202.618 121.686 199.337C121.48 199.132 121.274 199.132 121.069 198.927C116.133 196.877 111.402 199.953 109.346 202.823Z" fill="#2A3143"/>
<path d="M94.5371 194.417C90.835 199.542 93.7144 205.078 99.8845 204.463C107.083 203.643 111.813 194.827 107.083 191.136C106.877 190.931 106.672 190.931 106.466 190.726C101.736 188.471 96.5938 191.546 94.5371 194.417Z" fill="#2A3143"/>
<path d="M80.3466 186.011C76.4389 191.136 79.1126 196.877 85.0771 196.262C92.2755 195.442 97.4173 186.626 92.8925 182.935C92.6868 182.73 92.4812 182.73 92.2755 182.525C87.7508 180.065 82.4033 183.14 80.3466 186.011Z" fill="#2A3143"/>
<path d="M67.1835 177.399C63.0701 182.32 65.3325 187.856 71.0913 187.446C78.084 186.831 83.6371 178.219 79.3181 174.529C79.1124 174.324 78.9067 174.324 78.9067 174.119C74.5877 171.659 69.4459 174.529 67.1835 177.399Z" fill="#2A3143"/>
<path d="M55.0483 168.788C50.9349 173.504 52.5803 179.04 58.1334 178.63C64.7148 178.014 70.4736 169.813 66.7715 166.123C66.5659 165.918 66.3602 165.918 66.3602 165.713C62.4525 163.457 57.5164 166.123 55.0483 168.788Z" fill="#2A3143"/>
<path d="M44.1486 160.177C40.0352 164.688 41.2692 169.813 46.411 169.608C52.3754 169.198 58.9568 161.202 54.6378 157.512C51.347 155.051 46.411 157.717 44.1486 160.177Z" fill="#2A3143"/>
<path d="M34.0703 151.566C29.9569 155.667 30.9853 160.792 35.7157 160.382C41.2688 159.972 47.6446 152.591 44.1482 148.901C41.0631 146.85 36.5384 149.311 34.0703 151.566Z" fill="#2A3143"/>
<path d="M25.0207 142.955C21.3186 146.645 21.3186 151.156 25.432 151.361C30.5738 151.566 37.5666 144.39 34.4815 140.699C31.8078 138.649 27.4887 140.904 25.0207 142.955Z" fill="#2A3143"/>
<path d="M16.9995 134.549C13.2974 138.034 13.0918 142.135 16.7938 142.34C21.3186 142.545 28.3114 135.984 25.6376 132.498C23.3753 130.448 19.2619 132.498 16.9995 134.549Z" fill="#2A3143"/>
<path d="M10.0076 125.937C6.51116 129.218 6.09982 133.113 9.18487 133.318C13.2983 133.728 20.0854 127.372 17.823 124.092C15.972 122.042 12.0643 123.887 10.0076 125.937Z" fill="#2A3143"/>
<path d="M3.8375 117.326C0.546782 120.197 -0.07024 123.887 2.60347 124.092C6.30553 124.502 12.6813 118.761 11.036 115.686C9.39059 113.841 5.8942 115.686 3.8375 117.326Z" fill="#2A3143"/>
<path d="M-1.51136 108.92C-4.80208 111.585 -5.62475 114.866 -2.95104 115.071C0.339682 115.481 6.30412 110.15 5.0701 107.485C3.83608 105.845 0.545345 107.28 -1.51136 108.92Z" fill="#2A3143"/>
<path d="M-5.62411 100.514C-8.70916 102.974 -9.53183 105.845 -7.47513 106.255C-4.59574 106.665 1.16301 101.949 0.13466 99.2837C-0.89369 97.6435 -3.77308 98.8736 -5.62411 100.514Z" fill="#2A3143"/>
<path d="M2.39749 22.193C1.98615 22.398 1.36914 23.0131 1.36914 23.0131C1.57481 23.0131 2.60317 22.398 2.80884 21.988C2.80884 21.7829 2.60316 21.988 2.39749 22.193Z" fill="#2A3143"/>
<path d="M7.53864 15.632L7.94999 15.4269L8.36133 15.0169L8.15566 15.2219L7.53864 15.632Z" fill="#2A3143"/>
<path d="M166.111 251.21C164.26 255.72 168.374 259.821 173.104 257.771C177.629 255.925 179.068 249.775 174.338 247.519C170.225 246.289 166.934 248.954 166.111 251.21Z" fill="#2A3143"/>
<path d="M148.012 244.034C145.75 248.749 150.069 253.055 155.005 251.005C159.735 248.954 161.586 242.599 156.65 240.343C152.537 238.703 149.246 241.573 148.012 244.034Z" fill="#2A3143"/>
<path d="M130.735 236.243C128.473 240.958 131.969 245.264 137.111 243.829C142.664 242.188 144.515 235.217 140.196 232.757C139.991 232.757 139.785 232.552 139.785 232.552C135.671 230.912 131.969 233.782 130.735 236.243Z" fill="#2A3143"/>
<path d="M113.87 228.246C111.196 232.962 114.899 237.678 120.04 236.243C125.593 234.602 128.061 227.631 123.742 224.761C123.537 224.761 123.331 224.556 123.331 224.556C119.218 222.916 115.31 225.786 113.87 228.246Z" fill="#2A3143"/>
<path d="M97.8287 220.045C94.9493 224.966 98.4457 229.682 103.587 228.451C109.141 227.016 112.226 219.635 107.289 216.56C103.382 214.714 99.2684 217.585 97.8287 220.045Z" fill="#2A3143"/>
<path d="M82.4025 211.639C79.3174 216.56 82.6081 221.48 87.9556 220.25C93.5087 218.815 97.005 211.434 92.069 208.154C88.1612 206.308 84.0478 208.974 82.4025 211.639Z" fill="#2A3143"/>
<path d="M67.8001 202.823C64.7151 207.744 67.5944 212.664 72.7362 211.639C78.2893 210.409 81.9913 202.823 77.4666 199.542C73.5589 197.492 69.4455 200.158 67.8001 202.823Z" fill="#2A3143"/>
<path d="M54.0207 194.007C50.73 198.722 53.1981 203.643 58.3398 202.618C63.6872 201.388 67.8006 194.212 63.4816 190.931C59.9852 188.881 55.8718 191.341 54.0207 194.007Z" fill="#2A3143"/>
<path d="M41.4752 184.985C38.3901 189.291 40.0355 194.007 44.5602 193.597C49.9076 192.982 54.8437 185.395 50.7303 181.91C47.4396 180.065 43.3262 182.525 41.4752 184.985Z" fill="#2A3143"/>
<path d="M29.9572 176.169C26.8722 180.27 28.1062 184.985 32.4253 184.575C37.3613 183.96 42.5031 176.784 38.8011 173.504C35.716 171.248 31.8083 173.709 29.9572 176.169Z" fill="#2A3143"/>
<path d="M19.4679 167.148C16.1771 171.044 17.2055 175.554 21.1132 175.144C25.8436 174.734 30.9854 167.763 27.6947 164.483C25.2266 162.637 21.3189 164.893 19.4679 167.148Z" fill="#2A3143"/>
<path d="M10.0074 158.332C6.92237 162.022 7.53938 166.328 11.0358 165.918C15.3548 165.508 20.4966 158.947 17.6172 155.871C15.5605 154.026 11.8585 156.076 10.0074 158.332Z" fill="#2A3143"/>
<path d="M1.57457 149.31C-1.51048 152.796 -1.09913 156.897 2.19159 156.486C6.09932 156.076 11.0354 149.926 8.77302 147.055C6.92199 145.21 3.4256 147.26 1.57457 149.31Z" fill="#2A3143"/>
<path d="M-5.82949 140.494C-8.91454 143.775 -8.70887 147.465 -5.82949 147.26C-2.3331 147.055 2.60297 141.314 0.751942 138.444C-0.893419 136.599 -3.97846 138.649 -5.82949 140.494Z" fill="#2A3143"/>
<path d="M103.792 247.314C101.941 251.415 105.232 255.31 109.345 253.67C113.459 252.03 114.898 246.289 110.991 244.034C107.7 242.803 104.821 245.059 103.792 247.314Z" fill="#2A3143"/>
<path d="M87.1341 238.908C85.0774 243.008 87.9567 246.904 92.0702 245.674C96.3892 244.444 98.6516 238.088 94.5382 235.627C91.2475 234.192 88.3681 236.653 87.1341 238.908Z" fill="#2A3143"/>
<path d="M71.2969 230.092C69.2402 234.192 71.9139 238.088 75.8216 237.063C80.1407 235.832 82.6087 229.682 78.701 227.016C75.616 225.581 72.5309 228.041 71.2969 230.092Z" fill="#2A3143"/>
<path d="M56.0766 221.07C53.8142 225.171 56.2823 229.271 60.3957 228.246C64.7147 227.221 67.3885 220.865 63.4807 218.2C60.3957 216.56 57.3106 219.02 56.0766 221.07Z" fill="#2A3143"/>
<path d="M42.0913 212.049C39.829 215.945 41.8857 220.045 45.7934 219.225C49.9068 218.2 52.7862 212.049 49.2898 209.384C46.4104 207.539 43.3254 209.794 42.0913 212.049Z" fill="#2A3143"/>
<path d="M28.9288 202.823C26.4607 206.718 28.3118 210.614 32.0138 209.794C35.9215 208.769 39.0066 202.823 35.7159 200.157C33.2478 198.517 30.3685 200.772 28.9288 202.823Z" fill="#2A3143"/>
<path d="M16.9999 193.597C14.5319 197.287 15.9716 201.183 19.6737 200.363C23.3757 199.337 26.4608 193.597 23.7871 191.136C21.319 189.496 18.234 191.546 16.9999 193.597Z" fill="#2A3143"/>
<path d="M6.09941 184.37C3.83704 187.856 4.65971 191.341 7.74476 190.931C11.2412 190.521 14.9432 184.575 12.2695 181.91C10.2128 180.475 7.33343 182.525 6.09941 184.37Z" fill="#2A3143"/>
<path d="M-3.7727 175.144C-6.03507 178.424 -5.41808 181.91 -2.5387 181.5C0.752025 181.09 4.45409 175.349 2.19172 172.889C0.340691 171.453 -2.33301 173.299 -3.7727 175.144Z" fill="#2A3143"/>
<path d="M61.0127 249.979C59.573 253.26 61.8354 256.13 64.7148 255.105C67.5942 253.875 68.8282 249.364 66.1545 247.724C63.8921 246.494 61.8354 248.339 61.0127 249.979Z" fill="#2A3143"/>
<path d="M45.3824 240.753C43.9427 244.034 45.9994 247.109 48.8787 245.879C51.7581 244.649 53.1978 240.138 50.5241 238.293C48.4674 237.268 46.205 239.113 45.3824 240.753Z" fill="#2A3143"/>
<path d="M30.7793 231.322C29.3396 234.397 30.985 237.473 33.6587 236.652C36.5381 235.832 38.3891 231.117 35.9211 229.066C33.8644 228.041 31.602 229.682 30.7793 231.322Z" fill="#2A3143"/>
<path d="M17.4118 221.891C15.7664 224.761 17.2061 227.836 19.8798 227.016C22.7592 226.196 24.6102 221.686 22.3479 219.635C20.2912 218.61 18.2345 220.455 17.4118 221.891Z" fill="#2A3143"/>
<path d="M5.07118 212.459C3.42582 215.33 4.65984 218.2 7.12788 217.585C9.80159 216.765 11.8583 212.254 9.80158 210.409C7.95055 209.179 5.89386 211.024 5.07118 212.459Z" fill="#2A3143"/>
<path d="M20.4967 252.03C19.6741 254.08 20.7024 255.925 22.5534 255.31C24.1988 254.49 25.0215 251.825 23.5818 250.595C22.1421 249.979 21.1137 251.005 20.4967 252.03Z" fill="#2A3143"/>
<path d="M6.71679 242.598C5.89411 244.444 6.71679 246.289 8.36215 245.879C10.0075 245.264 11.0359 242.393 9.59617 241.163C8.36215 240.343 7.12813 241.573 6.71679 242.598Z" fill="#2A3143"/>
</g>
</svg>
